<svg xmlns="http://www.w3.org/2000/svg" width="800" height="262" viewBox="0 -189.93 539.856 176.803"><path d="M541.762-37.203c0 13.178-10.682 23.866-23.859 23.866H25.77c-13.177.001-23.864-10.687-23.864-23.866v-128.863c0-13.177 10.687-23.864 23.864-23.864h492.132c13.177 0 23.86 10.687 23.86 23.864v128.863z" style="stroke-width:.0879565"/><g fill="#fff"><path d="M123.96-104.293c-.117-12.895 10.56-19.169 11.049-19.461-6.047-8.814-15.42-10.019-18.714-10.115-7.872-.828-15.508 4.71-19.519 4.71-4.09 0-10.265-4.63-16.92-4.494-8.565.132-16.578 5.09-20.972 12.788-9.069 15.696-2.305 38.762 6.383 51.45 4.347 6.218 9.425 13.152 16.073 12.908 6.504-.265 8.933-4.142 16.781-4.142 7.776 0 10.058 4.142 16.837 3.985 6.98-.108 11.374-6.241 15.569-12.511 5.022-7.118 7.04-14.136 7.12-14.496-.16-.056-13.552-5.17-13.688-20.622zm-12.808-37.922c3.498-4.373 5.891-10.323 5.227-16.36-5.063.224-11.394 3.5-15.04 7.778-3.226 3.769-6.107 9.946-5.363 15.756 5.687.424 11.526-2.869 15.176-7.174zM218.158-57.4h-9.089l-4.979-15.64h-17.305l-4.743 15.64h-8.848l17.149-53.246h10.59zm-15.569-22.202-4.502-13.904c-.476-1.42-1.373-4.765-2.685-10.03h-.16c-.529 2.264-1.373 5.61-2.53 10.03l-4.426 13.904zm59.585 2.533c0 6.53-1.773 11.691-5.323 15.48-3.178 3.373-7.128 5.058-11.839 5.058-5.086 0-8.744-1.813-10.966-5.446v20.146h-8.532v-41.344c0-4.1-.108-8.306-.316-12.62h7.504l.476 6.086h.16c2.846-4.585 7.164-6.878 12.96-6.878 4.53 0 8.312 1.789 11.337 5.37 3.022 3.589 4.539 8.302 4.539 14.148zm-8.693.312c0-3.737-.84-6.818-2.53-9.247-1.844-2.524-4.322-3.789-7.427-3.789-2.106 0-4.019.705-5.727 2.093-1.713 1.4-2.834 3.229-3.358 5.493a11.142 11.14 0 0 0-.397 2.597v6.406c0 2.789.857 5.145 2.57 7.074 1.713 1.92 3.938 2.885 6.675 2.885 3.214 0 5.716-1.245 7.505-3.713 1.792-2.477 2.689-5.742 2.689-9.8zm52.864-.312c0 6.53-1.772 11.691-5.322 15.48-3.182 3.373-7.128 5.058-11.843 5.058-5.087 0-8.744-1.813-10.966-5.446v20.146h-8.532v-41.344c0-4.1-.108-8.306-.316-12.62h7.504l.476 6.086h.16c2.841-4.585 7.16-6.878 12.959-6.878 4.526 0 8.308 1.789 11.342 5.37 3.018 3.589 4.538 8.302 4.538 14.148zm-8.696.312c0-3.737-.845-6.818-2.534-9.247-1.845-2.524-4.314-3.789-7.42-3.789-2.105 0-4.018.705-5.735 2.093-1.713 1.4-2.83 3.229-3.353 5.493-.26 1.057-.4 1.917-.4 2.597v6.406c0 2.789.86 5.145 2.565 7.074 1.713 1.916 3.938 2.885 6.683 2.885 3.218 0 5.72-1.245 7.504-3.713 1.793-2.477 2.69-5.742 2.69-9.8zm58.083 4.421c0 4.533-1.585 8.218-4.734 11.063-3.466 3.105-8.305 4.661-14.508 4.661-5.731 0-10.326-1.104-13.792-3.316l1.973-7.11c3.742 2.216 7.853 3.32 12.327 3.32 3.218 0 5.72-.728 7.504-2.172 1.79-1.448 2.694-3.385 2.694-5.802 0-2.164-.749-3.977-2.218-5.453-1.476-1.473-3.918-2.845-7.348-4.105-9.325-3.477-13.991-8.563-13.991-15.252 0-4.37 1.649-7.947 4.938-10.743 3.29-2.793 7.653-4.19 13.08-4.19 4.846 0 8.884.845 12.09 2.53l-2.141 6.953c-3.018-1.632-6.424-2.449-10.234-2.449-3.01 0-5.37.74-7.06 2.213-1.42 1.316-2.14 2.92-2.14 4.825 0 2.1.82 3.845 2.453 5.214 1.417 1.26 4.002 2.632 7.74 4.105 4.586 1.848 7.956 4 10.113 6.474 2.174 2.472 3.254 5.557 3.254 9.234zm28.283-17.057h-9.405v18.642c0 4.74 1.657 7.106 4.979 7.106 1.525 0 2.79-.128 3.79-.397l.236 6.478c-1.68.628-3.894.944-6.635.944-3.37 0-6.004-1.028-7.905-3.084-1.893-2.057-2.845-5.502-2.845-10.351V-89.41h-5.603v-6.401h5.603v-7.03l8.38-2.529v9.559h9.405zm42.351 12.48c0 5.902-1.689 10.747-5.058 14.536-3.526 3.901-8.217 5.846-14.064 5.846-5.643 0-10.13-1.869-13.475-5.602-3.346-3.741-5.019-8.454-5.019-14.14 0-5.95 1.729-10.823 5.175-14.612 3.454-3.793 8.104-5.69 13.951-5.69 5.635 0 10.162 1.873 13.588 5.61 3.273 3.625 4.902 8.306 4.902 14.052zm-8.844.196c0-3.517-.76-6.534-2.286-9.059-1.789-3.048-4.35-4.573-7.668-4.573-3.418 0-6.04 1.525-7.824 4.573-1.529 2.525-2.29 5.594-2.29 9.219 0 3.521.761 6.546 2.29 9.062 1.845 3.05 4.418 4.574 7.752 4.574 3.262 0 5.82-1.557 7.668-4.65 1.57-2.584 2.358-5.621 2.358-9.146zm36.591-11.575a14.848 14.844 0 0 0-2.69-.236c-3 0-5.322 1.128-6.955 3.4-1.417 2.001-2.13 4.53-2.13 7.583V-57.4h-8.532v-26.303a269.866 269.794 0 0 0-.248-12.087h7.432l.312 7.346h.236c.905-2.525 2.322-4.562 4.267-6.086a10.318 10.315 0 0 1 6.167-2.057c.789 0 1.5.057 2.133.157zm38.16 9.878a20.01 20.006 0 0 1-.311 3.87h-25.598c.096 3.793 1.337 6.697 3.714 8.698 2.157 1.784 4.947 2.68 8.372 2.68 3.79 0 7.248-.6 10.358-1.812l1.337 5.918c-3.634 1.584-7.925 2.372-12.875 2.372-5.955 0-10.63-1.752-14.032-5.249-3.394-3.5-5.095-8.206-5.095-14.1 0-5.785 1.581-10.607 4.747-14.452 3.314-4.105 7.792-6.158 13.427-6.158 5.535 0 9.725 2.053 12.571 6.158 2.253 3.253 3.386 7.286 3.386 12.075zm-8.136-2.212c.06-2.533-.5-4.713-1.656-6.558-1.477-2.377-3.75-3.56-6.796-3.56-2.79 0-5.063 1.155-6.792 3.476-1.42 1.845-2.265 4.061-2.525 6.634zM184.324-129.472c-2.374 0-4.427-.116-6.136-.312v-25.743a46.45 46.437 0 0 1 7.224-.544c9.786 0 14.292 4.813 14.292 12.66 0 9.05-5.323 13.94-15.38 13.94zm1.432-23.298c-1.32 0-2.445.08-3.377.272v19.57c.504.08 1.472.116 2.833.116 6.412 0 10.062-3.65 10.062-10.483 0-6.094-3.302-9.475-9.518-9.475zm27.992 23.495c-5.515 0-9.09-4.118-9.09-9.707 0-5.826 3.65-9.979 9.402-9.979 5.435 0 9.089 3.921 9.089 9.67 0 5.898-3.766 10.016-9.401 10.016zm.16-16.621c-3.03 0-4.971 2.833-4.971 6.794 0 3.885 1.981 6.718 4.93 6.718 2.95 0 4.931-3.03 4.931-6.798 0-3.841-1.94-6.714-4.89-6.714zm40.69-2.677-5.904 18.87h-3.846l-2.445-8.195a62.154 62.137 0 0 1-1.517-6.094h-.08c-.308 2.057-.892 4.118-1.513 6.094l-2.601 8.194h-3.886l-5.555-18.869h4.31l2.137 8.97c.505 2.137.929 4.154 1.281 6.058h.08c.308-1.588.812-3.573 1.553-6.017l2.681-9.007h3.418l2.566 8.815a73.86 73.86 0 0 1 1.516 6.213h.112c.273-1.94.7-4 1.281-6.213l2.293-8.815zm21.731 18.87h-4.194v-10.836c0-3.337-1.28-5.009-3.806-5.009-2.485 0-4.194 2.137-4.194 4.621v11.223h-4.195v-13.475c0-1.669-.04-3.457-.156-5.398h3.69l.196 2.913h.117c1.128-2.017 3.417-3.297 5.983-3.297 3.962 0 6.563 3.029 6.563 7.958zm11.567 0h-4.199v-27.528h4.199zm15.292.428c-5.511 0-9.09-4.118-9.09-9.707 0-5.826 3.65-9.979 9.398-9.979 5.439 0 9.089 3.921 9.089 9.67.004 5.898-3.766 10.016-9.397 10.016zm.156-16.621c-3.03 0-4.97 2.833-4.97 6.794 0 3.885 1.984 6.718 4.926 6.718 2.953 0 4.93-3.03 4.93-6.798.005-3.841-1.933-6.714-4.886-6.714zm25.778 16.192-.304-2.172h-.112c-1.281 1.748-3.15 2.6-5.52 2.6-3.381 0-5.783-2.368-5.783-5.553 0-4.657 4.039-7.066 11.03-7.066v-.348c0-2.485-1.316-3.73-3.918-3.73-1.86 0-3.494.469-4.93 1.401l-.853-2.756c1.745-1.089 3.922-1.633 6.48-1.633 4.93 0 7.42 2.6 7.42 7.806v6.95c0 1.905.084 3.381.272 4.505zm-.577-9.398c-4.658 0-6.995 1.128-6.995 3.805 0 1.98 1.204 2.949 2.877 2.949 2.133 0 4.118-1.629 4.118-3.841zM353-129.704l-.196-3.028h-.116c-1.205 2.288-3.23 3.457-6.06 3.457-4.55 0-7.92-4.002-7.92-9.631 0-5.902 3.494-10.059 8.264-10.059 2.526 0 4.315.852 5.323 2.565h.084v-10.831h4.199v22.442c0 1.824.044 3.533.156 5.085zm-.62-11.103c0-2.64-1.75-4.893-4.419-4.893-3.11 0-5.01 2.757-5.01 6.638 0 3.805 1.972 6.41 4.926 6.41 2.637 0 4.502-2.293 4.502-5.01zm30.816 11.532c-5.511 0-9.085-4.118-9.085-9.707 0-5.826 3.65-9.979 9.397-9.979 5.44 0 9.089 3.921 9.089 9.67.004 5.898-3.762 10.016-9.401 10.016zm.156-16.621c-3.026 0-4.967 2.833-4.967 6.794 0 3.885 1.981 6.718 4.927 6.718 2.954 0 4.93-3.03 4.93-6.798.009-3.841-1.932-6.714-4.89-6.714zm31.801 16.192h-4.198v-10.835c0-3.337-1.28-5.009-3.806-5.009-2.485 0-4.19 2.137-4.19 4.621v11.223h-4.199v-13.475c0-1.669-.04-3.457-.156-5.398h3.69l.196 2.913h.116c1.125-2.017 3.418-3.3 5.98-3.3 3.962 0 6.567 3.028 6.567 7.957zm28.22-15.724h-4.615v9.163c0 2.332.808 3.497 2.441 3.497.74 0 1.361-.08 1.861-.197l.116 3.185c-.812.312-1.9.468-3.253.468-3.306 0-5.283-1.824-5.283-6.601v-9.515h-2.754v-3.145h2.754v-3.457l4.118-1.244v4.697h4.614zm22.203 15.724h-4.19v-10.755c0-3.376-1.277-5.085-3.806-5.085-2.173 0-4.198 1.476-4.198 4.465v11.375h-4.19v-27.527h4.19v11.335h.084c1.32-2.057 3.234-3.069 5.675-3.069 3.994 0 6.435 3.105 6.435 8.038zm22.749-8.426h-12.587c.08 3.573 2.445 5.59 5.947 5.59 1.861 0 3.574-.312 5.087-.893l.652 2.913c-1.785.776-3.886 1.164-6.331 1.164-5.903 0-9.397-3.729-9.397-9.51 0-5.786 3.578-10.135 8.925-10.135 4.822 0 7.848 3.573 7.848 8.97a8.084 8.082 0 0 1-.144 1.901zm-3.846-2.989c0-2.913-1.47-4.97-4.15-4.97-2.41 0-4.315 2.097-4.587 4.97z"/></g></svg>