<svg width="32" height="32" viewBox="0 0 32 32" fill="none" xmlns="http://www.w3.org/2000/svg">
<path d="M6.46665 29.3334V16.5334L6.09998 16.1667C5.85553 15.9222 5.66665 15.6334 5.53331 15.3C5.39998 14.9667 5.33331 14.6222 5.33331 14.2667C5.33331 13.9111 5.39998 13.5725 5.53331 13.2507C5.66665 12.928 5.85553 12.6445 6.09998 12.4L10.4666 8.00002H15.8L21.1333 2.66669L23.8666 5.40002C24.7555 6.28891 25.4444 7.29424 25.9333 8.41602C26.4222 9.53869 26.6666 10.7334 26.6666 12C26.6666 13.2667 26.4222 14.4614 25.9333 15.584C25.4444 16.7058 24.7555 17.7111 23.8666 18.6L21.1333 21.3334V29.3334H6.46665ZM9.13331 26.6667H18.4666V20.2334L21.9666 16.7334C22.6111 16.0889 23.1111 15.3667 23.4666 14.5667C23.8222 13.7667 24 12.9111 24 12C24 11.1111 23.8164 10.2667 23.4493 9.46669C23.0831 8.66669 22.5889 7.94446 21.9666 7.30002L21.1333 6.43335L16.9 10.6667H11.5666L10.8 11.4334L13.0333 13.6667C13.6555 14.2889 14.1391 15.0054 14.484 15.816C14.828 16.6276 15 17.4778 15 18.3667C15 19.2556 14.8333 20.1058 14.5 20.9174C14.1666 21.728 13.6778 22.4556 13.0333 23.1L9.13331 19.2V26.6667Z" fill="#FF9F0E"/>
</svg>
