<svg width="32" height="32" viewBox="0 0 32 32" fill="none" xmlns="http://www.w3.org/2000/svg">
<path d="M16 29.3333C14.1778 29.3333 12.4556 28.9831 10.8334 28.2827C9.21113 27.5831 7.79469 26.6275 6.58402 25.416C5.37246 24.2053 4.41691 22.7889 3.71735 21.1667C3.01691 19.5444 2.66669 17.8222 2.66669 16C2.66669 14.1555 3.01691 12.428 3.71735 10.8173C4.41691 9.20577 5.37246 7.79466 6.58402 6.58399C7.79469 5.37243 9.21113 4.41643 10.8334 3.71599C12.4556 3.01643 14.1778 2.66666 16 2.66666C17.8445 2.66666 19.572 3.01643 21.1827 3.71599C22.7942 4.41643 24.2054 5.37243 25.416 6.58399C26.6276 7.79466 27.5831 9.20577 28.2827 10.8173C28.9831 12.428 29.3334 14.1555 29.3334 16V17.9333C29.3334 19.2444 28.8836 20.3609 27.984 21.2827C27.0836 22.2053 25.9778 22.6667 24.6667 22.6667C23.8667 22.6667 23.1222 22.4889 22.4334 22.1333C21.7445 21.7778 21.1778 21.3111 20.7334 20.7333C20.1334 21.3333 19.428 21.8058 18.6174 22.1507C17.8058 22.4947 16.9334 22.6667 16 22.6667C14.1556 22.6667 12.5836 22.0164 11.284 20.716C9.98358 19.4164 9.33335 17.8444 9.33335 16C9.33335 14.1555 9.98358 12.5831 11.284 11.2827C12.5836 9.9831 14.1556 9.33332 16 9.33332C17.8445 9.33332 19.4169 9.9831 20.7174 11.2827C22.0169 12.5831 22.6667 14.1555 22.6667 16V17.9333C22.6667 18.5778 22.8667 19.0831 23.2667 19.4493C23.6667 19.8164 24.1334 20 24.6667 20C25.2 20 25.6667 19.8164 26.0667 19.4493C26.4667 19.0831 26.6667 18.5778 26.6667 17.9333V16C26.6667 13.0889 25.6165 10.5831 23.516 8.48266C21.4165 6.3831 18.9111 5.33332 16 5.33332C13.0889 5.33332 10.5831 6.3831 8.48269 8.48266C6.38313 10.5831 5.33335 13.0889 5.33335 16C5.33335 18.9111 6.38313 21.4164 8.48269 23.516C10.5831 25.6164 13.0889 26.6667 16 26.6667H22.6667V29.3333H16ZM16 20C17.1111 20 18.0556 19.6111 18.8334 18.8333C19.6111 18.0555 20 17.1111 20 16C20 14.8889 19.6111 13.9444 18.8334 13.1667C18.0556 12.3889 17.1111 12 16 12C14.8889 12 13.9445 12.3889 13.1667 13.1667C12.3889 13.9444 12 14.8889 12 16C12 17.1111 12.3889 18.0555 13.1667 18.8333C13.9445 19.6111 14.8889 20 16 20Z" fill="#FF9F0E"/>
</svg>
