<?xml version="1.0" encoding="UTF-8" standalone="no"?>
<!-- Uploaded to: SVG Repo, www.svgrepo.com, Generator: SVG Repo Mixer Tools -->

<svg
   width="800"
   height="262"
   viewBox="2.86 -2064.196 6137.761 2010.1167"
   version="1.1"
   id="svg76"
   sodipodi:docname="google-play.svg"
   inkscape:version="1.1.2 (b8e25be833, 2022-02-05)"
   xmlns:inkscape="http://www.inkscape.org/namespaces/inkscape"
   xmlns:sodipodi="http://sodipodi.sourceforge.net/DTD/sodipodi-0.dtd"
   xmlns:xlink="http://www.w3.org/1999/xlink"
   xmlns="http://www.w3.org/2000/svg"
   xmlns:svg="http://www.w3.org/2000/svg">
  <sodipodi:namedview
     id="namedview78"
     pagecolor="#ffffff"
     bordercolor="#666666"
     borderopacity="1.0"
     inkscape:pageshadow="2"
     inkscape:pageopacity="0.0"
     inkscape:pagecheckerboard="0"
     showgrid="false"
     height="262px"
     inkscape:zoom="0.89875"
     inkscape:cx="687.06537"
     inkscape:cy="47.2879"
     inkscape:window-width="1920"
     inkscape:window-height="1001"
     inkscape:window-x="-9"
     inkscape:window-y="-9"
     inkscape:window-maximized="1"
     inkscape:current-layer="svg76" />
  <path
     d="m 6140.6213,-327.80776 c 0,149.832 -121.453,271.344022 -271.261,271.344022 H 274.18 C 124.36,-56.451738 2.86,-177.96376 2.86,-327.80776 V -1792.876 c 1e-7,-149.82 121.5,-271.32 271.32,-271.32 h 5595.1683 c 149.808,0 271.261,121.5 271.261,271.32 v 1465.06824 z"
     id="path2" />
  <defs
     id="defs5">
    <path
       id="a"
       d="m 1332.988,884.566 -276.756,-159.78 c 0,0 -504.191,-291.132 -533.832,-308.244 -29.64,-17.112 -59.172,-6.744 -59.172,29.016 v 1255.813 c 0,26.808 21.107,38.364 46.859,23.508 25.74,-14.88 546.145,-315.348 546.145,-315.348 l 276.744,-159.769 c 0,0 234.816,-135.563 266.027,-153.576 31.213,-18.036 28.213,-42.756 1.873,-56.939 -26.328,-14.197 -267.888,-154.681 -267.888,-154.681 z" />
  </defs>
  <clipPath
     id="b">
    <use
       xlink:href="#a"
       overflow="visible"
       id="use7"
       x="0"
       y="0"
       width="100%"
       height="100%" />
  </clipPath>
  <linearGradient
     id="c"
     gradientUnits="userSpaceOnUse"
     x1="1451.479"
     y1="2452.512"
     x2="1451.479"
     y2="2339.209"
     gradientTransform="matrix(12,0,0,-12,-16611.705,29817.492)">
    <stop
       offset="0"
       stop-color="#257cb0"
       id="stop10" />
    <stop
       offset=".286"
       stop-color="#4a93b5"
       id="stop12" />
    <stop
       offset=".767"
       stop-color="#78bcbb"
       id="stop14" />
    <stop
       offset="1"
       stop-color="#89cfbd"
       id="stop16" />
  </linearGradient>
  <path
     clip-path="url(#b)"
     fill="url(#c)"
     d="M 463.24,387.346 V 1746.982 L 1148.848,1067.17 Z"
     id="path19"
     style="fill:url(#c)"
     transform="translate(0,-2065.01)" />
  <defs
     id="defs22">
    <path
       id="d"
       d="m 1332.988,884.566 -276.756,-159.78 c 0,0 -504.191,-291.132 -533.832,-308.244 -29.64,-17.112 -59.172,-6.744 -59.172,29.016 v 1255.813 c 0,26.808 21.107,38.364 46.859,23.508 25.74,-14.88 546.145,-315.348 546.145,-315.348 l 276.744,-159.769 c 0,0 234.816,-135.563 266.027,-153.576 31.213,-18.036 28.213,-42.756 1.873,-56.939 -26.328,-14.197 -267.888,-154.681 -267.888,-154.681 z" />
  </defs>
  <clipPath
     id="e">
    <use
       xlink:href="#d"
       overflow="visible"
       id="use24"
       x="0"
       y="0"
       width="100%"
       height="100%" />
  </clipPath>
  <linearGradient
     id="f"
     gradientUnits="userSpaceOnUse"
     x1="1422.913"
     y1="2424.3931"
     x2="1495.392"
     y2="2424.3931"
     gradientTransform="matrix(12,0,0,-12,-16611.705,29817.492)">
    <stop
       offset="0"
       stop-color="#52c1ad"
       id="stop27" />
    <stop
       offset="1"
       stop-color="#dee89a"
       id="stop29" />
  </linearGradient>
  <path
     clip-path="url(#e)"
     fill="url(#f)"
     d="M 1332.988,884.566 1056.232,724.786 463.24,382.402 v 4.944 l 685.608,679.824 z"
     id="path32"
     style="fill:url(#f)"
     transform="translate(0,-2065.01)" />
  <defs
     id="defs35">
    <path
       id="g"
       d="m 1332.988,884.566 -276.756,-159.78 c 0,0 -504.191,-291.132 -533.832,-308.244 -29.64,-17.112 -59.172,-6.744 -59.172,29.016 v 1255.813 c 0,26.808 21.107,38.364 46.859,23.508 25.74,-14.88 546.145,-315.348 546.145,-315.348 l 276.744,-159.769 c 0,0 234.816,-135.563 266.027,-153.576 31.213,-18.036 28.213,-42.756 1.873,-56.939 -26.328,-14.197 -267.888,-154.681 -267.888,-154.681 z" />
  </defs>
  <clipPath
     id="h">
    <use
       xlink:href="#g"
       overflow="visible"
       id="use37"
       x="0"
       y="0"
       width="100%"
       height="100%" />
  </clipPath>
  <linearGradient
     id="i"
     gradientUnits="userSpaceOnUse"
     x1="1459.151"
     y1="2395.8601"
     x2="1459.151"
     y2="2338.7971"
     gradientTransform="matrix(12,0,0,-12,-16611.705,29817.492)">
    <stop
       offset="0"
       stop-color="#ec413d"
       id="stop40" />
    <stop
       offset=".167"
       stop-color="#da4452"
       id="stop42" />
    <stop
       offset=".575"
       stop-color="#b0487a"
       id="stop44" />
    <stop
       offset=".862"
       stop-color="#954a92"
       id="stop46" />
    <stop
       offset="1"
       stop-color="#8a4a9d"
       id="stop48" />
  </linearGradient>
  <path
     clip-path="url(#h)"
     fill="url(#i)"
     d="m 463.24,1746.982 v 4.944 l 592.992,-342.396 276.744,-159.78 -184.128,-182.58 z"
     id="path51"
     style="fill:url(#i)"
     transform="translate(0,-2065.01)" />
  <defs
     id="defs54">
    <path
       id="j"
       d="m 1332.988,884.566 -276.756,-159.78 c 0,0 -504.191,-291.132 -533.832,-308.244 -29.64,-17.112 -59.172,-6.744 -59.172,29.016 v 1255.813 c 0,26.808 21.107,38.364 46.859,23.508 25.74,-14.88 546.145,-315.348 546.145,-315.348 l 276.744,-159.769 c 0,0 234.816,-135.563 266.027,-153.576 31.213,-18.036 28.213,-42.756 1.873,-56.939 -26.328,-14.197 -267.888,-154.681 -267.888,-154.681 z" />
  </defs>
  <clipPath
     id="k">
    <use
       xlink:href="#j"
       overflow="visible"
       id="use56"
       x="0"
       y="0"
       width="100%"
       height="100%" />
  </clipPath>
  <linearGradient
     id="l"
     gradientUnits="userSpaceOnUse"
     x1="1500.897"
     y1="2411.0769"
     x2="1500.897"
     y2="2380.646"
     gradientTransform="matrix(12,0,0,-12,-16611.705,29817.492)">
    <stop
       offset="0"
       stop-color="#f58879"
       id="stop59" />
    <stop
       offset=".119"
       stop-color="#f69079"
       id="stop61" />
    <stop
       offset=".713"
       stop-color="#fcb877"
       id="stop63" />
    <stop
       offset="1"
       stop-color="#fec874"
       id="stop65" />
  </linearGradient>
  <path
     clip-path="url(#k)"
     fill="url(#l)"
     d="m 1332.988,884.566 -184.14,182.604 184.128,182.58 316.283,-182.592 z"
     id="path68"
     style="fill:url(#l)"
     transform="translate(0,-2065.01)" />
  <path
     d="m 4779.556,-732.06376 c -25.752,0 -49.248,-4.752 -70.524,-14.244 -21.276,-9.504 -39.155,-24.12 -53.592,-43.824 h -4.319 c 2.879,23.088 4.319,44.977 4.319,65.652 v 162.708 h -59.856 V -1134.688 h 48.696 l 8.28,54.12 h 2.88 c 15.407,-21.66 33.336,-37.272 53.771,-46.896 20.437,-9.624 43.896,-14.436 70.332,-14.436 52.44,0 92.916,17.928 121.404,53.76 28.5,35.832 42.756,86.112 42.756,150.79224 0,64.944 -14.496,115.38 -43.452,151.368 -28.979,35.951 -69.203,53.916 -120.695,53.916 z m -8.664,-358.96824 c -40.404,0 -69.624,11.196 -87.66,33.553 -18.036,22.367 -27.3,57.97194 -27.792,106.80024 v 13.332 c 0,55.571 9.264,95.315 27.792,119.256 18.528,23.941 48.24,35.88 89.1,35.88 34.176,0 60.937,-13.812 80.305,-41.472 19.344,-27.648 29.027,-65.772 29.027,-114.384 0,-49.284 -9.684,-87.13324 -29.027,-113.46124 -19.357,-26.352 -46.621,-39.504 -81.745,-39.504 z m 311.484,351.74424 h -59.881 V -1300.648 h 59.881 z m 344.316,0 -11.916,-56.279 h -2.88 c -19.729,24.791 -39.385,41.579 -58.992,50.327 -19.596,8.796 -44.076,13.177 -73.404,13.177 -39.203,0 -69.924,-10.104 -92.184,-30.301 -22.26,-20.195 -33.372,-48.924 -33.372,-86.22 0,-79.836 63.864,-121.692 191.567,-125.556 l 67.129,-2.17197 V -1000.84 c 0,-31.032 -6.685,-53.952 -20.041,-68.724 -13.332,-14.809 -34.716,-22.2 -64.031,-22.2 -32.965,0 -70.248,10.104 -111.841,30.3 l -18.407,-45.816 c 19.5,-10.584 40.824,-18.875 64.056,-24.888 23.208,-6.012 46.464,-9.023 69.804,-9.023 47.137,0 82.068,10.452 104.809,31.38 22.716,20.928 34.08,54.479 34.08,100.668 v 269.84424 h -44.376 v 0.011 z m -135.288,-42.192 c 37.26,0 66.54,-10.225 87.84,-30.66 21.265,-20.437 31.933,-49.068 31.933,-85.884 v -35.712 l -59.916,2.508 c -47.616,1.716 -81.925,9.084 -102.996,22.224 -21.036,13.104 -31.561,33.492 -31.561,61.152 0,21.636 6.54,38.124 19.669,49.403 13.115,11.317 31.439,16.969 55.031,16.969 z m 214.428,-353.20824 h 64.2 l 86.593,225.49124 c 18.996,51.48 30.791,88.633 35.375,111.492 h 2.881 c 3.131,-12.288 9.695,-33.252 19.655,-62.987 9.984,-29.712 42.647,-121.02101 97.944,-273.99624 h 64.248 l -169.944,450.25224 c -16.824,44.496 -36.491,76.067 -59.004,94.739 -22.476,18.624 -50.088,27.925 -82.764,27.925 -18.288,0 -36.324,-2.04 -54.144,-6.12 v -47.977 c 13.223,2.88 28.031,4.332 44.388,4.332 41.136,0 70.452,-23.088 88.032,-69.275 l 21.996,-56.269 z m -1835.665,36.744 c 19.009,15.731 58.705,48.779 58.705,111.67226 0,61.16398 -34.74,90.16798 -69.48,117.41998 -10.752,10.739 -23.16,22.355 -23.16,40.571 0,18.156 12.396,28.093 21.528,35.545 l 29.784,23.111 c 36.384,30.612 69.432,58.752 69.432,115.836 0,77.736 -75.264,156.276 -217.488,156.276 -119.939,0 -177.803,-57.048 -177.803,-118.284 0,-29.76 14.819,-71.916 63.684,-100.896 51.24,-31.428 120.756,-35.52 157.955,-38.063 -11.615,-14.868 -24.815,-30.588 -24.815,-56.184 0,-14.04 4.152,-22.32 8.269,-32.292 -9.133,0.84 -18.217,1.668 -26.496,1.668 -87.637,0 -137.256,-65.34 -137.256,-129.816 0,-38.05224 17.388,-80.25624 52.908,-110.82024 47.159,-38.867 103.391,-45.504 148.092,-45.504 h 170.328 l -52.933,29.772 h -51.253 v -0.012 z m -58.74,367.22424 c -6.611,-0.864 -10.764,-0.864 -18.996,-0.864 -7.439,0 -52.163,1.692 -86.855,13.296 -18.191,6.564 -71.137,26.412 -71.137,85.164 0,58.692 57.097,100.933 145.597,100.933 79.344,0 121.571,-38.124 121.571,-89.353 0,-42.264 -27.299,-64.5 -90.18,-109.176 z m 24,-157.164 c 18.996,-19.044 20.629,-45.48 20.629,-60.384 0,-59.53224 -35.545,-152.16024 -104.172,-152.16024 -21.529,0 -44.664,10.74 -57.9,27.3 -14.041,17.364 -18.217,39.672 -18.217,61.2 0,55.40424 32.256,147.21624 103.416,147.21624 20.677,0 42.961,-9.924 56.244,-23.172 z m -485.927,143.928 c -131.268,0 -201.455,-102.396 -201.455,-194.892 0,-108.18124 88.332,-200.61624 213.888,-200.61624 121.319,0 197.292,94.92 197.292,194.85524 0.011,97.393 -75.097,200.653 -209.725,200.653 z m 103.201,-66.876 c 19.848,-26.448 24.803,-59.46 24.803,-91.691 0,-72.68498 -34.68,-211.38024 -137.076,-211.38024 -27.239,0 -54.479,10.752 -74.291,28.128 -32.209,28.859 -38.016,65.208 -38.016,100.7523 0,81.68394 40.463,216.23894 140.399,216.23894 32.196,0 65.231,-15.66 84.181,-42.048 z m -550.741,66.876 c -131.293,0 -201.492,-102.396 -201.492,-194.892 0,-108.18124 88.367,-200.61624 213.888,-200.61624 121.356,0 197.315,94.92 197.315,194.85524 0.013,97.393 -75.107,200.653 -209.711,200.653 z m 103.224,-66.876 c 19.812,-26.448 24.78,-59.46 24.78,-91.691 0,-72.68498 -34.705,-211.38024 -137.101,-211.38024 -27.228,0 -54.491,10.752 -74.292,28.128 -32.208,28.859 -37.98,65.208 -37.98,100.7523 0,81.68394 40.44,216.23894 140.389,216.23894 32.208,0 65.221,-15.66 84.204,-42.048 z m -367.788,53.928 -118.729,27.396 c -48.168,7.488 -91.319,14.076 -136.955,14.076 -229.152,0 -316.284,-168.528 -316.284,-300.52824 0,-161.027 123.672,-310.416 335.388,-310.416 44.844,0 87.973,6.624 126.984,17.424 62.256,17.437 91.309,39 109.584,51.469 l -68.928,65.579 -29.04,6.612 20.748,-33.216 c -28.212,-27.372 -79.728,-78 -177.648,-78 -131.172,0 -229.979,99.66 -229.979,244.92 0,156.02424 112.92,302.96424 293.855,302.96424 53.184,0 80.521,-10.775 105.444,-20.76 v -133.62 l -125.328,6.636 66.384,-35.735 h 176.004 l -21.564,20.748 c -5.855,5.004 -6.659,6.684 -8.315,13.26 -0.864,7.488 -1.644,31.584 -1.644,39.876 v 101.316 h 0.023 z"
     fill="#f9f9f9"
     id="path70" />
  <path
     d="m 3932.548,-780.80776 c -27.408,-2.496 -33.145,-7.452 -33.145,-39.864 V -1290.52 c 0.168,-1.788 0.276,-3.624 0.443,-5.353 3.349,-29.04 11.641,-34.02 37.404,-48.983 H 3818.5 l -62.279,29.892 h 63.468 v 0.372 l -0.048,-0.3 v 512.50824 c 0,16.572 -3.276,19.092 -22.393,43.968 h 146.953 l 30.719,-18.216 c -14.1,-1.716 -28.236,-2.52 -42.372,-4.176 z m 337.799,7.632 c -9.035,4.956 -18.107,10.752 -27.144,14.844 -27.252,12.36 -55.271,15.672 -80.052,15.672 -26.316,0 -67.572,-1.704 -109.656,-32.172 -58.487,-41.256 -84.047,-112.151 -84.047,-173.964 0,-127.76424 103.871,-190.41624 188.783,-190.41624 29.688,0 60.229,7.404 84.96,23.101 41.185,27.155 51.899,62.604 57.636,81.575 l -193.691,78.34924 -63.492,4.943 c 20.58,104.7 91.477,165.66 169.824,165.66 42.036,0 72.552,-14.808 100.572,-28.8 z m -77.471,-245.71224 c 15.636,-5.748 23.879,-10.716 23.879,-22.248 0,-32.952 -37.08,-70.896 -81.636,-70.896 -33.013,0 -94.8,25.572 -94.8,114.58898 0,14.01633 1.656,28.84826 2.508,43.73926 z m 157.043,-114.684 v 54.396 h -6.611 v -54.396 h -18 v -5.641 h 42.6 v 5.641 z m 74.161,54.396 v -54.9 h -0.3 l -16.752,54.9 h -5.172 l -16.896,-54.9 h -0.217 v 54.9 h -6 v -60.036 h 10.284 l 15.288,48.528 h 0.216 l 15.06,-48.528 h 10.429 v 60.036 z"
     fill="#f9f9f9"
     id="path72" />
  <path
     d="m 2030.308,-1488.016 h -41.256 c 0,-5.676 -3.912,-21.744 -11.736,-48.216 h -59.557 c -8.075,26.04 -12.119,42.107 -12.119,48.216 h -38.796 c 0,-3.349 10.032,-30.853 30.096,-82.5 20.063,-51.648 30.096,-80.101 30.096,-85.332 h 48.732 c 0,4.896 9.084,32.928 27.264,84.108 18.18,51.18 27.276,79.08 27.276,83.724 z m -59.557,-72.84 c -14.699,-44.341 -22.043,-68.316 -22.043,-71.929 h -2.064 c 0,3.349 -7.608,27.324 -22.812,71.929 z m 225.781,72.84 h -31.836 c 0,-3.528 -11.819,-22.128 -35.448,-55.812 -24.744,-35.496 -38.844,-59.76 -42.275,-72.827 h -2.064 c 2.148,18.815 3.229,35.831 3.229,51.048 0,21.228 0.6,47.1 1.8,77.604 h -31.716 c 1.283,-26.64 1.932,-55.896 1.932,-87.78 0,-31.367 -0.648,-58.056 -1.932,-80.052 h 38.279 c 0,4.56 10.608,22.74 31.836,54.528 22.597,33.768 35.58,56.676 38.929,68.712 h 1.932 c -2.063,-19.164 -3.096,-36.349 -3.096,-51.564 0,-23.279 -0.601,-47.184 -1.8,-71.676 h 32.232 c -1.213,21.312 -1.801,48 -1.801,80.052 -0.013,32.291 0.587,61.547 1.799,87.767 z m 186.828,-89.723 c 0,24.407 -7.823,45.72 -23.46,63.936 -15.648,18.228 -37.561,27.324 -65.748,27.324 -12.72,0 -30.252,-0.517 -52.596,-1.549 1.115,-25.955 1.68,-55.224 1.68,-87.779 0,-31.272 -0.564,-57.96 -1.68,-80.053 h 22.561 c 3.695,0 9.191,-0.132 16.5,-0.384 7.295,-0.252 12.071,-0.384 14.303,-0.384 31.021,0 53.509,7.74 67.488,23.208 13.968,15.468 20.952,34.02 20.952,55.681 z m -35.185,5.542 c 0,-16.5 -4.812,-30.396 -14.436,-41.712 -9.624,-11.292 -24.324,-16.943 -44.088,-16.943 -3.695,0 -8.76,0.384 -15.216,1.164 0.852,17.195 1.284,35.147 1.284,53.88 0,20.544 0.432,40.908 1.283,61.104 a 85.294,85.294 0 0 0 16.752,1.68 c 18.48,0 32.16,-5.747 41.053,-17.22 8.893,-11.472 13.368,-25.453 13.368,-41.953 z m 207.469,84.181 h -38.16 c -9.972,-30.42 -17.615,-49.2 -22.943,-56.328 -5.328,-7.14 -13.92,-10.704 -25.776,-10.704 -4.992,0 -9.757,0.048 -14.304,0.132 0,22.093 0.383,44.388 1.164,66.9 h -35.832 c 1.115,-25.956 1.68,-55.224 1.68,-87.78 0,-31.271 -0.564,-57.96 -1.68,-80.052 h 22.295 c 2.58,0 7.969,-0.132 16.177,-0.384 8.208,-0.252 15.792,-0.385 22.752,-0.385 39.444,0 59.172,13.488 59.172,40.477 0,21.396 -11.256,36.3 -33.768,44.736 v 1.932 c 8.676,2.4 16.284,9.18 22.812,20.292 6.515,11.124 15.323,31.512 26.411,61.164 z m -48.336,-118.597 c 0,-17.1 -11.004,-25.655 -33,-25.655 -8.076,0 -15.217,0.6 -21.396,1.8 0.948,13.32 1.416,30.684 1.416,52.08 4.729,0.18 8.725,0.252 11.988,0.252 27.324,0.012 40.992,-9.48 40.992,-28.477 z m 233.111,31.584 c 0,26.377 -8.076,48.252 -24.239,65.616 -16.164,17.353 -36.144,26.04 -59.94,26.04 -22.691,0 -41.688,-7.968 -56.976,-23.916 -15.3,-15.936 -22.944,-36.203 -22.944,-60.768 0,-26.376 8.076,-48.252 24.24,-65.616 16.152,-17.352 36.132,-26.04 59.939,-26.04 22.692,0 41.677,7.944 56.977,23.844 15.3,15.901 22.943,36.169 22.943,60.84 z m -35.567,3.733 c 0,-17.964 -4.597,-32.532 -13.788,-43.704 -9.204,-11.172 -20.544,-16.752 -34.032,-16.752 -12.552,0 -23.208,5.628 -31.968,16.884 -8.76,11.256 -13.164,25.477 -13.164,42.672 0,17.868 4.62,32.412 13.859,43.633 9.24,11.22 20.557,16.824 33.973,16.824 12.54,0 23.208,-5.652 31.968,-16.957 8.76,-11.292 13.152,-25.501 13.152,-42.6 z m 108.456,83.28 h -36.48 c 1.116,-26.64 1.68,-55.896 1.68,-87.78 0,-31.368 -0.563,-58.056 -1.68,-80.052 h 36.48 c -1.116,21.66 -1.68,48.336 -1.68,80.052 0,32.388 0.564,61.656 1.68,87.78 z m 186.84,-89.723 c 0,24.407 -7.824,45.72 -23.46,63.936 -15.647,18.228 -37.56,27.324 -65.748,27.324 -12.72,0 -30.252,-0.517 -52.597,-1.549 1.117,-25.955 1.681,-55.224 1.681,-87.779 0,-31.272 -0.563,-57.96 -1.681,-80.053 h 22.561 c 3.696,0 9.192,-0.132 16.5,-0.384 7.297,-0.252 12.072,-0.384 14.305,-0.384 31.02,0 53.508,7.74 67.487,23.208 13.968,15.468 20.952,34.02 20.952,55.681 z m -35.184,5.542 c 0,-16.5 -4.812,-30.396 -14.437,-41.712 -9.624,-11.292 -24.323,-16.943 -44.088,-16.943 -3.696,0 -8.76,0.384 -15.216,1.164 0.852,17.195 1.283,35.147 1.283,53.88 0,20.544 0.433,40.908 1.284,61.104 a 85.301,85.301 0 0 0 16.752,1.68 c 18.479,0 32.16,-5.747 41.052,-17.22 8.894,-11.472 13.37,-25.453 13.37,-41.953 z m 283.056,84.181 h -41.256 c 0,-5.676 -3.912,-21.744 -11.748,-48.216 h -59.556 c -8.076,26.04 -12.121,42.107 -12.121,48.216 h -38.783 c 0,-3.349 10.031,-30.853 30.096,-82.5 20.064,-51.648 30.096,-80.101 30.096,-85.332 h 48.732 c 0,4.896 9.096,32.928 27.264,84.108 18.168,51.18 27.276,79.08 27.276,83.724 z m -59.556,-72.84 c -14.7,-44.341 -22.057,-68.316 -22.057,-71.929 h -2.064 c 0,3.349 -7.596,27.324 -22.799,71.929 z m 209.916,-51.048 c 0,20.544 -7.633,35.712 -22.885,45.504 -15.252,9.792 -33.96,14.699 -56.137,14.699 -4.043,0 -6.911,-0.084 -8.639,-0.252 0,16.164 0.467,37.465 1.416,63.937 h -36.229 c 1.115,-24.828 1.68,-54.097 1.68,-87.78 0,-30.936 -0.563,-57.624 -1.68,-80.052 h 22.428 c 3.18,0 9.275,-0.132 18.3,-0.384 9.025,-0.252 16.837,-0.385 23.46,-0.385 16.32,0 30.12,3.696 41.376,11.088 11.257,7.393 16.91,18.589 16.91,33.625 z m -33.252,7.092 c 0,-18.385 -12.205,-27.588 -36.612,-27.588 -6.108,0 -12.552,0.647 -19.332,1.932 0.948,16.248 1.416,34.632 1.416,55.176 2.147,0.18 4.644,0.252 7.476,0.252 31.368,0.011 47.052,-9.912 47.052,-29.772 z m 187.86,-7.092 c 0,20.544 -7.632,35.712 -22.872,45.504 -15.252,9.792 -33.972,14.699 -56.147,14.699 -4.045,0 -6.912,-0.084 -8.641,-0.252 0,16.164 0.469,37.465 1.416,63.937 h -36.228 c 1.116,-24.828 1.681,-54.097 1.681,-87.78 0,-30.936 -0.564,-57.624 -1.681,-80.052 h 22.428 c 3.181,0 9.276,-0.132 18.3,-0.384 9.024,-0.252 16.836,-0.385 23.46,-0.385 16.319,0 30.12,3.696 41.376,11.088 11.255,7.393 16.908,18.589 16.908,33.625 z m -33.252,7.092 c 0,-18.385 -12.204,-27.588 -36.611,-27.588 -6.108,0 -12.553,0.647 -19.332,1.932 0.947,16.248 1.416,34.632 1.416,55.176 2.147,0.18 4.644,0.252 7.476,0.252 31.367,0.011 47.051,-9.912 47.051,-29.772 z m 286.032,29.783 c 0,26.377 -8.076,48.252 -24.24,65.616 -16.163,17.364 -36.144,26.04 -59.94,26.04 -22.691,0 -41.688,-7.968 -56.975,-23.916 -15.289,-15.936 -22.944,-36.203 -22.944,-60.768 0,-26.376 8.076,-48.252 24.239,-65.616 16.164,-17.364 36.145,-26.04 59.94,-26.04 22.692,0 41.688,7.944 56.976,23.844 15.288,15.901 22.944,36.169 22.944,60.84 z m -35.58,3.733 c 0,-17.964 -4.597,-32.532 -13.788,-43.704 -9.191,-11.172 -20.544,-16.752 -34.031,-16.752 -12.553,0 -23.209,5.628 -31.969,16.884 -8.76,11.256 -13.152,25.477 -13.152,42.672 0,17.868 4.621,32.412 13.86,43.633 9.239,11.22 20.556,16.824 33.96,16.824 12.552,0 23.208,-5.652 31.968,-16.956 8.772,-11.293 13.152,-25.502 13.152,-42.601 z m 210.3,83.28 h -31.836 c 0,-3.528 -11.809,-22.128 -35.448,-55.812 -24.744,-35.496 -38.845,-59.76 -42.276,-72.827 h -2.064 c 2.148,18.815 3.229,35.831 3.229,51.048 0,21.228 0.6,47.1 1.801,77.604 h -31.717 c 1.284,-26.64 1.932,-55.896 1.932,-87.78 0,-31.367 -0.646,-58.056 -1.932,-80.052 h 38.28 c 0,4.56 10.62,22.74 31.836,54.528 22.608,33.768 35.58,56.676 38.929,68.712 h 1.932 c -2.064,-19.164 -3.096,-36.349 -3.096,-51.564 0,-23.279 -0.6,-47.184 -1.801,-71.676 h 32.232 c -1.212,21.312 -1.8,48 -1.8,80.052 0,32.291 0.599,61.547 1.799,87.767 z"
     fill="#f9f9fa"
     id="path74" />
</svg>
