<svg xmlns="http://www.w3.org/2000/svg" aria-hidden="true" style="position:absolute;width:0;height:0;overflow:hidden"><defs><symbol id="icon-search" viewBox="0 0 24 24"><path fill="transparent" stroke-linecap="round" stroke-linejoin="round" stroke-width="2" d="m15 15 6 6m-11-4a7 7 0 1 1 0-14 7 7 0 0 1 0 14Z"/></symbol><symbol id="icon-down-arrow" viewBox="0 0 32 32"><path d="m6.181 11.544.112.131 8.5 9.781c.287.331.719.538 1.2.538s.913-.212 1.2-.538l8.637-9.925a.968.968 0 0 0 .169-.544c0-.544-.462-.988-1.038-.988H7.036c-.575 0-1.037.444-1.037.988 0 .206.069.4.181.556z"/></symbol><symbol id="icon-logout" viewBox="0 0 32 32"><path d="M31.091 13.717c-.163-.163-.163-.326-.326-.489l-3.261-3.261c-.652-.652-1.631-.652-2.283 0s-.652 1.631 0 2.283l.489.489h-4.24c-.978 0-1.631.652-1.631 1.631s.652 1.631 1.631 1.631h4.24l-.489.489c-.652.652-.652 1.631 0 2.283.326.326.815.489 1.141.489s.815-.163 1.141-.489l3.261-3.261c.163-.163.326-.326.326-.489.163-.489.163-.815 0-1.305z"/><path d="M23.101 19.261c-.978 0-1.631.652-1.631 1.631v1.631c0 .978-.652 1.631-1.631 1.631h-1.631V10.131c0-2.12-1.305-3.914-3.098-4.566l-2.609-.978h7.338c.978 0 1.631.652 1.631 1.631v1.631c0 .978.652 1.631 1.631 1.631s1.631-.652 1.631-1.631V6.218c0-2.772-2.12-4.892-4.892-4.892H3.534c-.163 0-.326 0-.489.163-.163 0-.326.163-.326.163l-.163.163a.35.35 0 0 0-.326.326v.163a.35.35 0 0 0-.326.326s0 0 0 .163v22.992c0 .652.489 1.305.978 1.467l10.762 4.077c.326.163.815.163 1.141.163.652 0 1.305-.163 1.794-.652.815-.652 1.467-1.631 1.467-2.609v-.815h1.631c2.772 0 4.892-2.12 4.892-4.892v-1.631c.163-.815-.489-1.631-1.467-1.631zM5.164 24.642V5.237l8.642 3.261c.652.326 1.141.978 1.141 1.631v18.1l-9.784-3.587z"/></symbol><symbol id="icon-user" viewBox="0 0 32 32"><path d="M10.605 8.146c0-1.315.522-2.576 1.45-3.506a4.944 4.944 0 0 1 7 0 4.964 4.964 0 0 1 0 7.012 4.944 4.944 0 0 1-7 0 4.964 4.964 0 0 1-1.45-3.506zm4.95-7.792c-2.063 0-4.042.821-5.5 2.282a7.8 7.8 0 0 0 0 11.018 7.773 7.773 0 0 0 11 0 7.796 7.796 0 0 0 0-11.018 7.773 7.773 0 0 0-5.5-2.282zM3.533 23.02c0-1.127.447-2.208 1.243-3.005s1.875-1.245 3-1.245h15.557c1.125 0 2.205.448 3 1.245s1.243 1.878 1.243 3.005v.32a4.011 4.011 0 0 1-.028.395c-.028.245-.08.578-.184.972a7.864 7.864 0 0 1-1.413 2.857c-1.655 2.128-4.768 3.956-10.396 3.956s-8.74-1.828-10.396-3.956a7.882 7.882 0 0 1-1.414-2.857 7.03 7.03 0 0 1-.207-1.272l-.003-.095v-.033l-.002-.011v-.276zm2.829.252v.017c.02.238.06.474.12.705.127.493.386 1.159.906 1.829.997 1.281 3.188 2.863 8.166 2.863s7.17-1.582 8.166-2.862a5.055 5.055 0 0 0 .905-1.83 4.11 4.11 0 0 0 .122-.705l.001-.017v-.252a1.42 1.42 0 0 0-1.414-1.417H7.776a1.411 1.411 0 0 0-1.414 1.417v.252z"/></symbol><symbol id="icon-about" viewBox="0 0 32 32"><path d="M32 16c0-8.837-7.163-16-16-16S0 7.163 0 16s7.163 16 16 16 16-7.163 16-16zm-2.785 0c0 7.298-5.917 13.215-13.215 13.215S2.785 23.298 2.785 16 8.702 2.785 16 2.785c7.296.006 13.209 5.919 13.215 13.214V16z"/><path d="M14.26 6.095h3.48v3.48h-3.48v-3.48zM17.74 22.195v-10.25h-4.915v3.48h1.615v6.77h-1.615v3.48h6.35v-3.48H17.74z"/></symbol><symbol id="icon-forum" viewBox="0 0 32 32"><path d="M28 8h-2.667v12H8v2.667C8 23.4 8.6 24 9.333 24H24l5.333 5.333v-20C29.333 8.6 28.733 8 28 8zm-5.333 8V4c0-.733-.6-1.333-1.333-1.333H4.001c-.733 0-1.333.6-1.333 1.333v18.667l5.333-5.333h13.333c.733 0 1.333-.6 1.333-1.333z"/></symbol><symbol id="icon-game" viewBox="0 0 32 32"><path d="M6.45 27.249h-.011a6.163 6.163 0 0 1-1.652-.224l.043.01C2.169 26.258.258 23.841.258 20.977c0-.57.076-1.122.217-1.647l-.01.044L3.086 9.43A6.26 6.26 0 0 1 5.97 5.588l.029-.016A6.04 6.04 0 0 1 9.06 4.75c.572 0 1.125.079 1.65.225l-.043-.01a6.242 6.242 0 0 1 3.853 3.126l.016.035h2.925a6.203 6.203 0 0 1 3.826-3.15l.044-.01a5.953 5.953 0 0 1 1.607-.215c1.127 0 2.183.305 3.09.838l-.029-.016a6.292 6.292 0 0 1 2.903 3.792l.01.044 2.621 9.966a6.301 6.301 0 0 1-4.331 7.671l-.045.011a5.953 5.953 0 0 1-1.607.215 6.079 6.079 0 0 1-3.09-.838l.029.016a6.26 6.26 0 0 1-2.904-3.792l-.01-.044-.203-.99h-6.749l-.259.967a6.261 6.261 0 0 1-2.884 3.82l-.029.016a6.065 6.065 0 0 1-3 .821h-.003zM9.06 7.001a3.91 3.91 0 0 0-1.954.528l.019-.01a4.068 4.068 0 0 0-1.861 2.435l-.007.028-2.621 9.944a4.052 4.052 0 0 0 2.761 4.931l.029.007a3.849 3.849 0 0 0 2.965-.392l-.018.01a3.995 3.995 0 0 0 1.861-2.436l.006-.028.697-2.643h10.124l.686 2.643a4.046 4.046 0 0 0 1.849 2.453l.019.01a3.845 3.845 0 0 0 1.94.518c.362 0 .713-.049 1.046-.142l-.027.007a4.035 4.035 0 0 0 2.772-4.966l.007.028-2.621-9.944a4.01 4.01 0 0 0-1.837-2.453l-.018-.01a3.845 3.845 0 0 0-1.94-.518c-.362 0-.713.049-1.046.142l.027-.007a4.011 4.011 0 0 0-2.657 2.469l-.009.028-.27.742H13.02l-.27-.742a4.022 4.022 0 0 0-2.649-2.49l-.028-.007a3.845 3.845 0 0 0-1.012-.135z"/><path d="M9.251 16a2.25 2.25 0 1 1 2.25-2.25A2.25 2.25 0 0 1 9.251 16zM23.874 11.501a1.125 1.125 0 1 1-2.25 0 1.125 1.125 0 0 1 2.25 0zM23.874 16a1.125 1.125 0 1 1-2.25 0 1.125 1.125 0 0 1 2.25 0zM21.624 13.75a1.125 1.125 0 1 1-2.25 0 1.125 1.125 0 0 1 2.25 0zM26.124 13.75a1.125 1.125 0 1 1-2.25 0 1.125 1.125 0 0 1 2.25 0z"/></symbol><symbol id="icon-news" viewBox="0 0 32 32"><path d="M4 14h20v-2H4v2zm11 12h7v-2h-7v2zm0-4h9v-2h-9v2zm0-4h9v-2h-9v2zM4 26h9V16H4v10zm24-16V6H0v22s0 4 4 4h25s3-.062 3-4V10h-4zM4 30c-2 0-2-2-2-2V8h24v20c0 .921.284 1.558.676 2H4z"/></symbol><symbol id="icon-like" viewBox="0 0 32 32"><path d="M23.645 30.659H16.963a10.87 10.87 0 0 1-3.878-.71l.075.025-5.197-1.93a1.155 1.155 0 0 1 .812-2.162l-.008-.002 5.196 1.93a8.454 8.454 0 0 0 2.998.539h6.683a1.094 1.094 0 0 0 0-2.188 1.155 1.155 0 1 1 0-2.31h1.574a1.094 1.094 0 0 0 0-2.188 1.155 1.155 0 1 1 0-2.31h1.574a1.094 1.094 0 0 0 .773-1.868 1.081 1.081 0 0 0-.769-.32h-.005a1.155 1.155 0 1 1 0-2.31h1.574a1.093 1.093 0 0 0 .769-1.868 1.083 1.083 0 0 0-.77-.321H17.456a1.155 1.155 0 0 1-1.008-1.719l-.003.006a7.535 7.535 0 0 0 .703-2.215l.006-.043c.261-1.684-.061-3.206-.956-4.524a.946.946 0 0 0-1.72.539c.038 3.956-1.79 6.831-5.286 8.316a1.155 1.155 0 1 1-.91-2.123l.008-.003c1.441-.616 2.492-1.521 3.122-2.701.514-.963.77-2.129.757-3.465-.011-1.46.889-2.692 2.288-3.128s2.834.06 3.653 1.267c1.903 2.799 1.559 5.705 1.038 7.485h9.215a3.404 3.404 0 0 1 1.528 6.446l-.02.009a3.409 3.409 0 0 1-1.554 4.489l-.02.009a3.41 3.41 0 0 1-1.555 4.49l-.02.009a3.405 3.405 0 0 1-3.079 4.85z"/><path d="M8.75 28.949H2.138a1.155 1.155 0 0 1-1.155-1.155V11.961c0-.638.517-1.155 1.155-1.155H8.75c.638 0 1.155.517 1.155 1.155v15.833c0 .638-.517 1.155-1.155 1.155zm-5.454-2.31h4.3V13.116H3.294z"/></symbol><symbol id="icon-action" viewBox="0 0 32 32"><path stroke-miterlimit="10" stroke-width=".777" d="m18.884 22.581 6.776-6.776a.853.853 0 0 1 1.208 0l.619.619a.853.853 0 0 1 0 1.208l-6.776 6.776a.853.853 0 0 1-1.208 0l-.619-.619a.853.853 0 0 1 0-1.208z"/><path stroke-miterlimit="10" stroke-width=".777" d="m22.785 22.333 2.627-2.627a.292.292 0 0 1 .411 0l5.125 5.125a2.148 2.148 0 1 1-3.038 3.038l-5.124-5.124-.001-.001a.292.292 0 0 1 0-.411zM6.621 4.198l.654 3.806a.59.59 0 0 0 .164.315l12.444 12.444a.576.576 0 0 0 .814.007l3.153-3.153a.574.574 0 0 0-.007-.814L11.399 4.361a.583.583 0 0 0-.312-.163l-.004-.001-3.806-.654a.565.565 0 0 0-.656.659l-.001-.003zM22.272 19.193 11.425 8.346M10.235 7.157l-3.5-3.501M11.255 24.408l-6.776-6.776a.853.853 0 0 1 0-1.208l.619-.619a.853.853 0 0 1 1.208 0l6.776 6.776a.853.853 0 0 1 0 1.208l-.619.619a.853.853 0 0 1-1.208 0z"/><path stroke-miterlimit="10" stroke-width=".777" d="M1.017 27.869a2.148 2.148 0 0 1 0-3.038l5.125-5.125a.292.292 0 0 1 .411 0l2.627 2.627a.292.292 0 0 1 0 .411l-5.125 5.125a2.148 2.148 0 0 1-3.038 0zM19.944 12.905l4.583-4.583a.59.59 0 0 0 .163-.312l.001-.004.653-3.806a.565.565 0 0 0-.659-.656l.003-.001-3.806.655a.59.59 0 0 0-.315.164l-4.583 4.583M15.984 16.866l-3.898 3.897a.574.574 0 0 1-.814.006l-3.153-3.153a.574.574 0 0 1 .007-.814l3.898-3.898M14.002 14.885l-4.308 4.308M25.231 3.656l-7.268 7.268"/></symbol><symbol id="icon-adventures" viewBox="0 0 32 32"><path d="M31.75 8c-.15-.1-.35-.15-.5-.05l-10.2 3.65L13.9 9c.4-1 .6-1.9.6-2.65 0-1.35-.5-2.55-1.45-3.5s-2.2-1.45-3.5-1.45A4.93 4.93 0 0 0 4.6 6.35c0 .95.35 2.1.95 3.5L.35 11.6c-.2.1-.35.3-.35.5v18c0 .2.1.35.25.45.1.05.2.1.3.1.05 0 .15 0 .2-.05l10.2-3.6 9.9 3.65c.1.05.25.05.35 0l10.4-3.7c.2-.1.35-.3.35-.5v-18c.05-.2-.05-.35-.2-.45zM9.55 2.4c1.05 0 2 .4 2.7 1.15.75.7 1.15 1.7 1.15 2.7 0 .7-.25 1.65-.75 2.75-.9 2-2.4 4.1-3.1 5.05-.1-.1-.15-.2-.25-.35-.65-.9-1.7-2.4-2.45-3.95C6.1 8.3 5.75 7.1 5.75 6.2c-.05-2.05 1.7-3.8 3.8-3.8zM30.9 26.05l-9.85 3.5-9.9-3.65c-.05 0-.15-.05-.2-.05s-.15 0-.2.05L1.1 29.35V12.5l5-1.75v.05c.05.05.05.1.1.15l.15.3c.05.05.05.1.1.15l.15.3c.05.05.05.1.1.15.05.1.1.2.15.25s.05.1.1.15.1.15.15.25c.05.05.05.1.1.15.05.1.1.15.15.25.05.05.05.1.1.15.05.1.1.15.15.25.05.05.05.1.1.15.05.1.1.15.15.25.05.05.05.1.1.1.05.1.1.15.15.2 0 .05.05.05.05.1.05.1.1.15.15.2l.05.05c.05.05.1.15.15.2l.05.05c.05.05.1.15.15.2l.15.15c.1.15.2.25.2.3.1.15.25.2.45.2.15 0 .3-.1.45-.2l.15-.15.05-.05.1-.1.05-.05c.05-.05.05-.1.1-.15 0-.05.05-.05.05-.1.05-.05.1-.1.1-.15.05-.05.05-.1.1-.15s.1-.1.15-.2c.05-.05.05-.1.1-.15s.1-.1.15-.2c.05-.05.1-.1.1-.15.05-.05.1-.15.15-.2s.1-.15.15-.2c.05-.05.1-.15.15-.2s.1-.15.15-.2c.05-.1.1-.15.15-.25.05-.05.1-.15.15-.2.05-.1.1-.15.15-.25s.1-.15.15-.25c.05-.1.1-.15.15-.25s.1-.15.15-.25c.05-.1.1-.15.15-.25s.1-.15.15-.25c.05-.1.1-.15.15-.25s.1-.15.15-.25c.05-.1.1-.2.15-.25.05-.1.1-.15.1-.25v-.05l7.4 2.7c.1.05.25.05.35 0L30.9 9.1v16.95z"/><path d="M26.25 21.2c.1.05.25.05.35.05.3 0 .6-.1.85-.25.35-.25.6-.6.7-1s0-.85-.2-1.2c-.25-.35-.6-.6-1-.7-.85-.2-1.75.35-1.95 1.2-.1.4 0 .85.2 1.2.3.35.65.6 1.05.7zm-.15-1.7c.05-.3.35-.45.6-.4.15.05.25.1.3.25.05.1.1.25.05.4s-.1.25-.25.3c-.1.05-.25.1-.4.05s-.25-.1-.3-.25v-.35zM5.5 19.55l-.35.2-.2-.35c-.15-.25-.5-.35-.75-.15-.25.15-.35.5-.15.75l.2.35-.35.2c-.25.15-.35.5-.15.75.05.2.25.25.4.25.1 0 .2-.05.3-.1l.35-.2.2.35c.1.15.3.25.45.25.1 0 .2-.05.3-.1.25-.15.35-.5.15-.75l-.2-.35.35-.2c.25-.15.35-.5.15-.75-.1-.25-.45-.3-.7-.15zM10.65 21.05c-.65 0-1.5-.1-2.05-.25-.3-.05-.6.15-.65.45s.15.6.45.65c.55.1 1.45.25 2.25.25.3 0 .55-.25.55-.55s-.25-.55-.55-.55zM14.75 19.15c-.35.5-.75.9-1.25 1.2-.15.1-.35.2-.55.3-.3.1-.4.45-.3.75.1.2.3.35.5.35.05 0 .15 0 .2-.05.25-.1.45-.2.65-.35.6-.4 1.1-.85 1.55-1.45.2-.25.15-.6-.1-.75-.15-.3-.5-.25-.7 0zM18.75 15.55c-.55 0-.85.15-1.15.25-.7.3-1.3.95-1.45 1.15-.2.25-.15.6.05.8.1.1.25.15.35.15.15 0 .3-.05.4-.2.25-.3.65-.65 1.05-.85.3-.1.4-.15.75-.2.3 0 .55-.25.55-.55s-.25-.55-.55-.55zM20.8 16.4c-.1.3 0 .6.3.75.55.25 1.35.65 1.95 1.1.1.05.2.1.3.1.2 0 .35-.1.45-.25.15-.25.1-.6-.15-.75-.7-.45-1.5-.9-2.15-1.15-.25-.2-.55-.05-.7.2zM9.55 7.6c.95 0 1.7-.75 1.7-1.7s-.75-1.7-1.7-1.7-1.7.75-1.7 1.7.8 1.7 1.7 1.7zm0-2.3c.3 0 .6.25.6.6 0 .3-.25.6-.6.6-.3 0-.6-.25-.6-.6.05-.3.3-.6.6-.6z"/></symbol><symbol id="icon-android" viewBox="0 0 32 32"><path d="M8 24c0 .8.533 1.333 1.333 1.333h1.333V30c0 1.067.933 2 2 2s2-.933 2-2v-4.667h2.667V30c0 1.067.933 2 2 2s2-.933 2-2v-4.667h1.333c.8 0 1.333-.533 1.333-1.333V10.667h-16V24zM4.667 10.667c-1.067 0-2 .933-2 2V22c0 1.067.933 2 2 2s2-.933 2-2v-9.333c0-1.067-.933-2-2-2zm22.666 0c-1.067 0-2 .933-2 2V22c0 1.067.933 2 2 2s2-.933 2-2v-9.333c0-1.067-.933-2-2-2zm-6.666-7.734L22.4 1.2c.267-.267.267-.667 0-.933s-.667-.267-.933 0l-2 2c-.933-.667-2.133-.933-3.467-.933s-2.533.267-3.6.8l-1.867-2c-.267-.133-.8-.133-1.067 0-.133.267-.133.8 0 1.067l1.733 1.733c-1.867 1.467-3.2 3.733-3.2 6.4h16c0-2.667-1.333-5.067-3.333-6.4zm-7.334 3.734H12V5.334h1.333v1.333zm6.667 0h-1.333V5.334H20v1.333z"/></symbol><symbol id="icon-apple" viewBox="0 0 32 32"><path d="M24.536 17.38c-.039-3.961 3.23-5.861 3.376-5.957-1.837-2.687-4.7-3.055-5.719-3.097-2.434-.247-4.752 1.434-5.987 1.434-1.232 0-3.14-1.398-5.159-1.362-2.656.039-5.103 1.544-6.47 3.922-2.758 4.784-.705 11.874 1.982 15.757 1.314 1.898 2.881 4.033 4.936 3.955 1.981-.078 2.729-1.281 5.124-1.281s3.067 1.281 5.163 1.241c2.13-.039 3.481-1.934 4.784-3.84 1.508-2.205 2.129-4.34 2.166-4.448-.046-.022-4.153-1.595-4.196-6.324zM20.599 5.756c1.09-1.323 1.829-3.162 1.628-4.993-1.573.064-3.477 1.046-4.607 2.367-1.012 1.173-1.896 3.041-1.659 4.839 1.755.136 3.545-.893 4.638-2.214z"/></symbol><symbol id="icon-browser" viewBox="0 0 32 32"><path d="M16 1.125C7.79 1.125 1.125 7.79 1.125 16S7.79 30.875 16 30.875 30.875 24.21 30.875 16 24.21 1.125 16 1.125zm0 1.271c7.508 0 13.604 6.095 13.604 13.604S23.509 29.604 16 29.604C8.492 29.604 2.396 23.509 2.396 16S8.491 2.396 16 2.396z"/><path d="M16 1.125c-1.757 0-3.412 1.095-4.729 3.026C9.448 6.825 8.244 11.135 8.244 16s1.203 9.175 3.027 11.849c1.317 1.931 2.972 3.026 4.729 3.026s3.412-1.095 4.729-3.026c1.823-2.674 3.027-6.984 3.027-11.849s-1.203-9.175-3.027-11.849C19.412 2.22 17.757 1.125 16 1.125zm0 1.271c1.387 0 2.639.947 3.678 2.472 1.712 2.51 2.806 6.566 2.806 11.132s-1.094 8.622-2.806 11.132c-1.039 1.525-2.291 2.472-3.678 2.472s-2.639-.947-3.678-2.472C10.61 24.622 9.516 20.566 9.516 16s1.094-8.622 2.806-11.132C13.361 3.343 14.613 2.396 16 2.396z"/><path d="M4.343 24.32a.636.636 0 0 0-.055.846c2.724 3.475 6.959 5.709 11.713 5.709s8.989-2.234 11.713-5.709a.636.636 0 0 0-.055-.846c-2.712-2.657-6.924-4.379-11.657-4.379S7.057 21.662 4.345 24.32zm1.314.512c2.508-2.223 6.215-3.62 10.343-3.62s7.836 1.396 10.343 3.62c-2.496 2.919-6.205 4.771-10.343 4.771s-7.847-1.852-10.343-4.771zM4.287 6.834c-.2.255-.176.62.055.846 2.712 2.657 6.924 4.379 11.657 4.379s8.945-1.721 11.657-4.379a.636.636 0 0 0 .055-.846c-2.724-3.475-6.959-5.709-11.713-5.709S7.009 3.359 4.285 6.834zm1.37.334C8.153 4.249 11.862 2.397 16 2.397s7.847 1.852 10.343 4.771c-2.508 2.223-6.215 3.62-10.343 3.62S8.164 9.392 5.657 7.168zM1.761 16.636H30.24a.636.636 0 0 0 0-1.272H1.761a.636.636 0 0 0 0 1.272z"/><path d="M16.636 30.239V1.76a.636.636 0 0 0-1.272 0v28.479a.636.636 0 0 0 1.272 0z"/></symbol><symbol id="icon-card-game" viewBox="0 0 32 32"><path d="M29 0v32a2 2 0 0 0 2-2V2a2 2 0 0 0-2-2zM24 0H4a3 3 0 0 0-3 3v26a3 3 0 0 0 3 3h20a3 3 0 0 0 3-3V3a3 3 0 0 0-3-3zm1 29a1 1 0 0 1-1 1H4a1 1 0 0 1-1-1V3a1 1 0 0 1 1-1h20a1 1 0 0 1 1 1z"/><path d="M9 10h2V6a2 2 0 0 0-2-2H7a2 2 0 0 0-2 2v4h2V9h2zM7 7V6h2v1zM14.71 12.29a.996.996 0 0 0-1.41 0l-5 5a.996.996 0 0 0 0 1.41l5 5a.996.996 0 0 0 1.41 0l5-5a.996.996 0 0 0 0-1.41zm-.71 9.3L10.41 18 14 14.41 17.59 18z"/></symbol><symbol id="icon-educational" viewBox="0 0 32 32"><path d="m6.502 6.151 3.697 1.625a6.43 6.43 0 0 0-1.116 3.633c0 3.57 2.9 6.502 6.502 6.502s6.502-2.9 6.502-6.502c0-1.275-.382-2.55-1.084-3.602l3.251-1.53v6.183l-.988 2.104c-.064.159-.064.319.032.446s.255.223.414.223h1.88c.159 0 .319-.064.382-.223.096-.127.096-.287.032-.446l-.861-2.104V5.862c0-.255-.032-.446-.478-.637-.096-.032-8.861-3.92-8.861-3.92a.404.404 0 0 0-.382 0L6.5 5.257a.5.5 0 0 0-.287.446.48.48 0 0 0 .287.446zM21.1 11.41c0 3.06-2.486 5.546-5.546 5.546s-5.546-2.486-5.546-5.546c0-1.179.382-2.295 1.052-3.251l4.335 1.944c.064.032.127.032.191.032s.127 0 .191-.032l4.271-1.912A5.404 5.404 0 0 1 21.1 11.41zm3.346 2.869.223-.478.191.478h-.414zM15.618 2.263l7.745 3.442-7.745 3.442-7.745-3.442 7.745-3.442zM15.745 19.06c-6.215 0-11.283 5.068-11.283 11.283a.49.49 0 0 0 .478.478h21.61a.49.49 0 0 0 .478-.478c0-6.215-5.068-11.283-11.283-11.283zM5.45 29.865c.255-5.482 4.781-9.849 10.327-9.849s10.04 4.398 10.295 9.849H5.45z"/></symbol><symbol id="icon-horror" viewBox="0 0 32 32"><path d="M27.248 11.782c0-5.436-4.407-9.842-9.842-9.842h-2.812c-5.436 0-9.842 4.407-9.842 9.842v1.406c0 .813.832.977.832 1.406s-.832.977-.832 1.406v1.406a2.812 2.812 0 0 0 2.812 2.812h4.218v2.812c0 .776.63 1.406 1.406 1.406h.703V23.03h1.406v1.406h1.406V23.03h1.406v1.406h.703c.776 0 1.406-.63 1.406-1.406v-2.812h4.218a2.812 2.812 0 0 0 2.812-2.812V16c0-.637-.832-.977-.832-1.406s.832-.681.832-1.406zm-13.659 2.925c-.685 2.981-1.78 2.473-3.224 2.424-1.532-.053-2.556-.198-2.877-.879-.787-.928-.664-5.191 3.12-3.601 1.713.72 3.194 1.29 2.981 2.056zm3.351 5.976c-.737 0-.561-.855-.94-.849-.399.008-.277.849-.993.849h-.012a.752.752 0 0 1-.724-.955l-.001.005a9.258 9.258 0 0 1 1.08-2.12l-.02.031a.754.754 0 0 1 1.286-.003l.002.003a9.025 9.025 0 0 1 1.04 2.024l.02.064a.753.753 0 0 1-.727.95h-.012.001zm7.53-4.431c-.321.681-1.346.827-2.877.879-1.444.048-2.538.557-3.224-2.424-.213-.766 1.268-1.336 2.981-2.056 3.784-1.589 3.906 2.673 3.12 3.601z"/><path d="M22.327 23.85a2.812 2.812 0 0 1-2.812 2.812h-1.406v1.289h-1.406v-1.289h-1.406v1.289h-1.406v-1.289h-1.406a2.812 2.812 0 0 1-2.812-2.812v-2.226H7.564v3.832c0 .936.457 1.765 1.161 2.276l.008.006 4.455 3.209.844-.422c.573-.293 1.251-.465 1.968-.465s1.395.172 1.993.476l-.025-.012.844.422 4.455-3.209a2.814 2.814 0 0 0 1.169-2.282v-3.832h-2.109z"/></symbol><symbol id="icon-linux" viewBox="0 0 32 32"><path d="M16.671 0c-.207 0-.42.011-.639.028-5.636.444-4.141 6.409-4.227 8.397-.103 1.457-.4 2.605-1.401 4.028-1.18 1.401-2.836 3.667-3.621 6.028-.371 1.109-.547 2.245-.383 3.319a.57.57 0 0 0-.148.18c-.347.357-.599.801-.883 1.119-.265.265-.647.356-1.063.533-.417.181-.877.359-1.152.908a1.78 1.78 0 0 0-.176.801c0 .265.036.535.073.715.077.532.155.972.052 1.293-.331.907-.372 1.528-.14 1.98.232.445.713.625 1.252.801 1.081.267 2.547.18 3.7.799 1.235.623 2.488.895 3.488.627a2.359 2.359 0 0 0 1.611-1.26c.783-.004 1.64-.359 3.013-.445.932-.077 2.099.356 3.437.265.033.18.084.265.152.445l.004.004c.521 1.037 1.484 1.509 2.512 1.428 1.028-.08 2.123-.715 3.009-1.741.841-1.02 2.244-1.445 3.171-2.004.464-.265.839-.625.865-1.137.031-.533-.265-1.083-.952-1.836v-.129l-.004-.004c-.227-.267-.333-.713-.451-1.235-.113-.535-.243-1.048-.656-1.395h-.004c-.079-.072-.164-.089-.251-.18a.468.468 0 0 0-.253-.085c.575-1.704.352-3.4-.231-4.925-.711-1.88-1.953-3.517-2.9-4.644-1.061-1.34-2.101-2.609-2.081-4.492.036-2.869.316-8.177-4.725-8.185zm.705 4.54h.017c.284 0 .528.083.779.264.255.18.44.443.585.711.14.345.211.612.221.965 0-.027.008-.053.008-.079v.139a.097.097 0 0 1-.005-.028l-.005-.032a2.418 2.418 0 0 1-.2.941 1.28 1.28 0 0 1-.284.447 1.045 1.045 0 0 0-.117-.056c-.14-.06-.265-.085-.38-.177a1.782 1.782 0 0 0-.292-.088c.065-.079.193-.177.243-.264.071-.171.109-.352.117-.536v-.025a1.612 1.612 0 0 0-.081-.533c-.06-.18-.135-.268-.244-.445-.112-.088-.223-.176-.356-.176h-.021c-.124 0-.235.04-.349.176a1.061 1.061 0 0 0-.273.445 1.564 1.564 0 0 0-.12.533v.025c.003.119.011.239.027.356-.257-.089-.584-.18-.809-.269a2.33 2.33 0 0 1-.024-.265v-.027a2.352 2.352 0 0 1 .2-1.025c.109-.292.309-.541.573-.711.228-.172.505-.265.792-.265zm-3.949.079h.048c.189 0 .36.064.532.18.195.172.352.384.459.62.12.265.188.535.204.889v.005a1.95 1.95 0 0 1-.003.355v.107c-.04.009-.075.024-.111.032-.203.073-.365.18-.524.267.016-.119.017-.239.004-.356v-.02c-.016-.177-.052-.265-.109-.444a.815.815 0 0 0-.221-.356.327.327 0 0 0-.244-.085h-.028c-.095.008-.173.055-.248.176a.74.74 0 0 0-.16.36 1.257 1.257 0 0 0-.031.441v.019c.016.18.049.268.108.445.06.179.129.267.22.357.015.012.028.024.045.032-.093.076-.156.093-.235.181a.413.413 0 0 1-.175.091 3.554 3.554 0 0 1-.367-.536 2.363 2.363 0 0 1-.207-.889 2.341 2.341 0 0 1 .107-.891c.073-.263.203-.505.377-.713.171-.177.347-.267.557-.267zm1.828 2.274c.441 0 .976.087 1.62.532.391.267.697.359 1.404.624h.004c.34.181.54.355.637.532v-.175a.762.762 0 0 1 .021.627c-.164.415-.688.859-1.419 1.124v.003c-.357.18-.668.444-1.033.62-.368.18-.784.389-1.349.356a1.514 1.514 0 0 1-.597-.089 4.614 4.614 0 0 1-.429-.264c-.26-.18-.484-.443-.816-.62v-.007h-.007c-.533-.328-.821-.683-.915-.948-.092-.357-.007-.625.257-.8.299-.18.507-.361.644-.448.139-.099.191-.136.235-.175h.003v-.004c.225-.269.581-.625 1.119-.801.185-.048.392-.087.621-.087zm3.732 2.858c.479 1.889 1.596 4.633 2.315 5.964.381.712 1.14 2.212 1.469 4.032.208-.007.439.024.684.085.861-2.228-.728-4.623-1.452-5.288-.295-.268-.309-.447-.164-.447.785.712 1.82 2.096 2.195 3.676.172.713.212 1.472.028 2.227.089.037.18.081.273.089 1.376.712 1.884 1.251 1.64 2.049v-.057c-.081-.004-.16 0-.241 0h-.02c.201-.623-.243-1.1-1.42-1.632-1.22-.533-2.195-.448-2.361.62-.009.057-.016.088-.023.18-.091.031-.185.071-.279.085-.573.357-.883.892-1.057 1.583-.173.711-.227 1.541-.273 2.492v.004c-.028.445-.228 1.117-.425 1.801-2 1.429-4.773 2.051-7.132.445a3.538 3.538 0 0 0-.536-.711 1.919 1.919 0 0 0-.367-.445c.243 0 .451-.039.62-.089a.822.822 0 0 0 .419-.445c.144-.356 0-.929-.46-1.551-.46-.623-1.241-1.327-2.384-2.028-.84-.532-1.315-1.16-1.533-1.861-.22-.712-.191-1.447-.02-2.193.327-1.427 1.164-2.813 1.699-3.684.143-.087.049.18-.544 1.299-.528 1.001-1.521 3.329-.163 5.139.051-1.319.344-2.62.863-3.835.752-1.704 2.324-4.672 2.448-7.024.064.048.289.18.385.269.291.177.507.444.787.62.281.268.636.447 1.168.447.052.004.1.008.148.008.548 0 .972-.179 1.328-.357.387-.179.695-.445.987-.533h.007c.623-.18 1.115-.536 1.393-.933zm2.914 11.944c.049.801.457 1.66 1.176 1.836.784.179 1.912-.444 2.388-1.02l.281-.012c.42-.011.769.013 1.129.356l.004.004c.277.265.407.708.521 1.168.113.535.205 1.04.545 1.421.648.703.86 1.208.848 1.52l.004-.008v.024l-.004-.016c-.02.349-.247.528-.664.793-.84.535-2.328.949-3.276 2.093-.824.983-1.828 1.519-2.715 1.588-.885.071-1.649-.267-2.099-1.197l-.007-.004c-.28-.535-.16-1.367.075-2.253.235-.891.571-1.793.617-2.531.049-.952.101-1.78.26-2.419.16-.62.411-1.063.855-1.312l.06-.029zm-14.42.065h.013c.071 0 .14.007.209.019.501.073.941.444 1.364 1.003l1.213 2.219.004.004c.324.711 1.005 1.419 1.585 2.184.579.797 1.027 1.508.972 2.093v.008c-.076.992-.639 1.531-1.5 1.725-.86.18-2.027.003-3.193-.619-1.291-.715-2.824-.625-3.809-.803-.492-.088-.815-.268-.964-.535-.148-.265-.151-.801.164-1.64v-.004l.003-.004c.156-.445.04-1.004-.036-1.492-.073-.535-.111-.945.057-1.253.213-.445.528-.532.919-.711.393-.18.855-.269 1.221-.625h.003v-.004c.341-.357.593-.801.891-1.117.253-.268.507-.448.884-.448zm9.546-12.099c-.58.268-1.26.713-1.984.713-.723 0-1.293-.356-1.705-.621-.207-.179-.373-.357-.499-.447-.219-.179-.192-.445-.099-.445.145.021.172.18.265.268.128.088.287.265.481.444.388.267.907.623 1.555.623.647 0 1.404-.356 1.864-.621.26-.18.593-.445.864-.623.208-.183.199-.357.372-.357.172.021.045.179-.196.444-.241.18-.615.447-.92.624v-.001zm-1.443-2.112V7.52c-.008-.025.017-.056.039-.067.099-.057.24-.036.347.005.084 0 .213.089.2.18-.008.065-.113.088-.18.088-.073 0-.123-.057-.188-.091-.069-.024-.195-.011-.217-.087zm-.735 0c-.027.077-.151.065-.221.088-.063.033-.115.091-.185.091-.068 0-.175-.025-.183-.091-.012-.088.117-.177.2-.177.108-.041.245-.063.345-.007.025.012.048.04.04.067v.028h.004z"/></symbol><symbol id="icon-other" viewBox="0 0 32 32"><path d="M9.517 2.139c0-.704-.57-1.273-1.273-1.273H2.139c-.704 0-1.273.57-1.273 1.273v6.104c0 .704.57 1.273 1.273 1.273h6.104c.704 0 1.273-.57 1.273-1.273V2.139zM6.97 6.97H3.412V3.413h3.557V6.97zM12.948 9.517h6.104c.704 0 1.273-.57 1.273-1.273V2.14c0-.704-.57-1.273-1.273-1.273h-6.104c-.704 0-1.273.57-1.273 1.273v6.104c0 .703.57 1.273 1.273 1.273zm1.274-6.105h3.557v3.557h-3.557V3.412zM23.757 9.517h6.104c.704 0 1.273-.57 1.273-1.273V2.14c0-.704-.57-1.273-1.273-1.273h-6.104c-.704 0-1.273.57-1.273 1.273v6.104c0 .703.571 1.273 1.273 1.273zm1.273-6.105h3.557v3.557H25.03V3.412zM9.517 12.948c0-.704-.57-1.273-1.273-1.273H2.139c-.704 0-1.273.57-1.273 1.273v6.104c0 .704.57 1.273 1.273 1.273h6.104c.704 0 1.273-.57 1.273-1.273v-6.104zM6.97 17.779H3.412v-3.557h3.557v3.557zM11.675 19.052c0 .704.57 1.273 1.273 1.273h6.104c.704 0 1.273-.57 1.273-1.273v-6.104c0-.704-.57-1.273-1.273-1.273h-6.104c-.704 0-1.273.57-1.273 1.273v6.104zm2.547-4.831h3.557v3.557h-3.557v-3.557zM22.483 19.052c0 .704.57 1.273 1.273 1.273h6.104c.704 0 1.273-.57 1.273-1.273v-6.104c0-.704-.57-1.273-1.273-1.273h-6.104c-.704 0-1.273.57-1.273 1.273v6.104zm2.547-4.831h3.557v3.557H25.03v-3.557zM8.243 22.483H2.138c-.704 0-1.273.57-1.273 1.273v6.104c0 .704.57 1.273 1.273 1.273h6.104c.704 0 1.273-.57 1.273-1.273v-6.104a1.272 1.272 0 0 0-1.273-1.273zM6.97 28.588H3.412v-3.557h3.557v3.557zM11.675 29.861c0 .704.57 1.273 1.273 1.273h6.104c.704 0 1.273-.57 1.273-1.273v-6.104c0-.704-.57-1.273-1.273-1.273h-6.104c-.704 0-1.273.57-1.273 1.273v6.104zm2.547-4.831h3.557v3.557h-3.557V25.03zM22.483 29.861c0 .704.57 1.273 1.273 1.273h6.104c.704 0 1.273-.57 1.273-1.273v-6.104c0-.704-.57-1.273-1.273-1.273h-6.104c-.704 0-1.273.57-1.273 1.273v6.104zm2.547-4.831h3.557v3.557H25.03V25.03z"/></symbol><symbol id="icon-race" viewBox="0 0 32 32"><path d="M31.225 13.9c-.197-.328-2.14-1.168-2.14-1.168.338-.175.569-.211.569-.933 0-.787-.004-1.05-.529-1.05h-1.781l-.022-.049c-1.15-2.511-1.304-3.145-3.019-4-2.3-1.144-6.612-1.202-8.303-1.202S9.997 5.556 7.699 6.7c-1.717.853-1.674 1.292-3.019 4 0 .007-.014.026-.026.049H2.871c-.521 0-.525.262-.525 1.05 0 .722.231.758.569.933 0 0-1.878.905-2.14 1.168S.25 16 .25 19.15s.263 6.3.263 6.3h.784c0 .919.135 1.05.529 1.05h5.25c.394 0 .525-.131.525-1.05h16.8c0 .919.131 1.05.525 1.05h5.381c.262 0 .394-.197.394-1.05h.788s.262-3.216.262-6.3-.328-4.922-.525-5.25zM7.42 16.849a32.827 32.827 0 0 1-3.594.201h-.005c-1.34 0-1.386.086-1.48-.751a4.846 4.846 0 0 1 .037-1.176l-.003.027.041-.2h.197c.788 0 1.527.034 2.924.445.754.23 1.411.567 1.992 1l-.017-.012c.286.207.352.404.352.404zm16.22 4.725-.29.726H8.65s.026-.04-.328-.734c-.262-.513.066-.841.585-1.028 1.005-.362 3.943-1.389 7.093-1.389s6.146.885 7.12 1.389c.361.186.809.318.52 1.04zm-16.866-8.96a5.832 5.832 0 0 1-.65.005h.013c.171-.305.266-.644.434-.998.525-1.116 1.125-2.378 2.194-2.91 1.545-.769 4.747-1.116 7.234-1.116s5.689.344 7.234 1.116c1.069.532 1.667 1.796 2.195 2.91.169.358.262.7.438 1.006-.131.007-.282 0-.642-.012zm22.82 3.683c-.14.819-.009.753-1.415.753a34.146 34.146 0 0 1-3.754-.215l.155.014c-.187-.034-.24-.349-.091-.466a6.114 6.114 0 0 1 1.931-.977l.044-.011c1.396-.412 2.183-.467 2.959-.439a.212.212 0 0 1 .203.196v.001a4.716 4.716 0 0 1-.035 1.173l.003-.026z"/></symbol><symbol id="icon-rpg" viewBox="0 0 32 32"><path d="M17.56 2.199s.785.571 1.588.75a.164.164 0 0 1 .1.255 2.133 2.133 0 0 1-.876.727.585.585 0 0 1-.812-.542V2.198z"/><path d="M16.06 1.186s.344-.002.771.044a1.487 1.487 0 0 1 1.332 1.477v.567c0 .191-.18.333-.365.285-.407-.105-1.094-.24-1.738-.168V1.186z"/><path d="M15.749 1.187h.623v4.722h-.623V1.187z"/><path d="M15.749 5.309h.623v.599h-.623v-.599zM16.06 13.101h-4.407v7.841h8.813v-7.841z"/><path d="M16.06 15.039a1.29 1.29 0 0 0-1.29 1.29v1.094h2.58v-1.094a1.29 1.29 0 0 0-1.29-1.29zM11.654 12.873V14.2h8.813v-1.327H16.06zM17.076 5.48v.428l-1.015.001-1.015-.001V5.48a.324.324 0 0 0-.324-.324h-.832a.324.324 0 0 0-.324.324v6.446h4.992V5.48a.324.324 0 0 0-.324-.324h-.832a.325.325 0 0 0-.325.324z"/><path d="M16.06 7.255c-.561 0-1.015.455-1.015 1.015v.528h2.031V8.27c0-.561-.455-1.015-1.015-1.015zM20.616 10.158h-.962a.328.328 0 0 0-.328.328v.883h-1.961v-.883a.328.328 0 0 0-.328-.328h-1.956a.328.328 0 0 0-.328.328v.883h-1.961v-.883a.328.328 0 0 0-.328-.328H10.54a.328.328 0 0 0-.328.328v2.791h11.691v-2.791a.328.328 0 0 0-.328-.328h-.962zM16.06 21.177H7.152v9.637h17.816v-9.637z"/><path d="M7.152 21.177v1.762h17.816v-1.762H16.06zM16.169 23.917a5.512 5.512 0 0 0-5.512 5.512v1.385h11.024v-1.385a5.512 5.512 0 0 0-5.512-5.512z"/><path d="M20.478 25.993a5.583 5.583 0 0 0-.798-.814v3.487h-1.17v-4.228a5.502 5.502 0 0 0-.798-.301v4.529h-1.143v-4.733a5.279 5.279 0 0 0-.798 0v4.733h-1.17v-4.521a5.435 5.435 0 0 0-.798.306v4.216H12.66V25.18a5.483 5.483 0 0 0-.798.814v2.673h-1.15a5.482 5.482 0 0 0-.054.763v.036h1.203v1.349h.798v-1.349h1.143v1.349h.798v-1.349h1.17v1.349h.798v-1.349h1.143v1.349h.798v-1.349h1.17v1.349h.798v-1.349h1.203v-.036c0-.259-.019-.513-.054-.763h-1.15v-2.673zM23.483 19.49v.905h-1.485v-.905a.306.306 0 0 0-.306-.306h-2.357a.306.306 0 0 0-.306.306v.905h-1.485v-.905a.306.306 0 0 0-.306-.306h-2.357a.306.306 0 0 0-.306.306v.905H13.09v-.905a.306.306 0 0 0-.306-.306h-2.357a.306.306 0 0 0-.306.306v.905H8.636v-.905a.306.306 0 0 0-.306-.306H7.151v2.623h17.815v-2.623h-1.179a.306.306 0 0 0-.306.306z"/><path d="M7.609 18.07 8.75 30.814H1.323l.874-12.744zM6.949 15.126v.884H5.62v-.884a.328.328 0 0 0-.328-.328h-.829a.328.328 0 0 0-.328.328v.884H2.806v-.884a.328.328 0 0 0-.328-.328h-.829a.328.328 0 0 0-.328.328v2.944h7.111v-2.944a.328.328 0 0 0-.328-.328h-.829a.328.328 0 0 0-.328.328z"/><path d="m7.725 19.366-.116-1.296H2.197l-.089 1.296zM6.523 30.814v-2.035a1.462 1.462 0 1 0-2.924 0v2.035h2.924zM5.969 24.353H4.154V23.14a.908.908 0 1 1 1.816 0v1.213zM24.391 18.07 23.25 30.814h7.427l-.874-12.744zM25.051 15.126v.884h1.329v-.884c0-.181.147-.328.328-.328h.829c.181 0 .328.147.328.328v.884h1.329v-.884c0-.181.147-.328.328-.328h.829c.181 0 .328.147.328.328v2.944h-7.111v-2.944c0-.181.147-.328.328-.328h.829c.181 0 .328.147.328.328z"/><path d="m24.275 19.366.116-1.296h5.412l.089 1.296zM25.477 30.814v-2.035a1.462 1.462 0 1 1 2.924 0v2.035h-2.924zM26.031 24.353h1.815V23.14a.908.908 0 1 0-1.816 0v1.213z"/></symbol><symbol id="icon-shooter" viewBox="0 0 32 32"><path d="M16 31.316a2.565 2.565 0 0 1-2.565-2.565v-.153c-5.016-1.034-8.96-4.939-9.994-9.955h-.076a2.565 2.565 0 0 1 0-5.13C4.36 8.42 8.342 4.438 13.435 3.405 13.473 1.988 14.584.878 16 .878s2.565 1.149 2.565 2.527c5.093 1.034 9.075 5.016 10.07 10.108a2.565 2.565 0 0 1 0 5.13h-.076c-1.034 5.016-4.977 8.921-9.994 9.955v.153A2.565 2.565 0 0 1 16 31.316zM3.364 14.66c-.766 0-1.417.651-1.417 1.417 0 .804.651 1.417 1.417 1.417H3.9c.268 0 .536.192.574.46a11.713 11.713 0 0 0 9.649 9.572.58.58 0 0 1 .498.574v.613c0 .766.651 1.417 1.417 1.417s1.417-.651 1.417-1.417V28.1c0-.268.192-.536.498-.574a11.67 11.67 0 0 0 9.649-9.572c.038-.268.268-.46.574-.46h.46c.766 0 1.417-.651 1.417-1.417 0-.804-.651-1.417-1.417-1.417h-.498a.575.575 0 0 1-.574-.498c-.766-4.978-4.671-8.883-9.649-9.726a.58.58 0 0 1-.498-.574v-.421c0-.766-.651-1.417-1.417-1.417s-1.417.651-1.417 1.417v.421a.575.575 0 0 1-.498.574c-4.978.842-8.883 4.748-9.649 9.764a.58.58 0 0 1-.574.498h-.498zM16 25.572a9.89 9.89 0 0 1-2.144-.23 9.572 9.572 0 0 1-7.16-7.083c-.153-.727-.268-1.493-.268-2.221 0-.689.077-1.379.23-2.029a9.519 9.519 0 0 1 7.198-7.275 9.952 9.952 0 0 1 4.25 0 9.517 9.517 0 0 1 7.198 7.275c.153.651.23 1.34.23 2.029 0 .727-.076 1.493-.268 2.221a9.57 9.57 0 0 1-7.16 7.083c-.651.115-1.379.23-2.106.23zm0-17.958c-.651 0-1.264.077-1.876.23-3.178.727-5.667 3.216-6.356 6.394a9.24 9.24 0 0 0-.192 1.8c0 .651.077 1.302.23 1.953.727 3.101 3.216 5.514 6.318 6.241a8.855 8.855 0 0 0 3.752 0c3.101-.689 5.552-3.14 6.318-6.241.153-.651.23-1.302.23-1.953 0-.613-.076-1.187-.192-1.8a8.42 8.42 0 0 0-6.318-6.394A8.19 8.19 0 0 0 16 7.614zm0 17.958a9.89 9.89 0 0 1-2.144-.23 9.572 9.572 0 0 1-7.16-7.083c-.153-.727-.268-1.493-.268-2.221 0-.689.077-1.379.23-2.029a9.519 9.519 0 0 1 7.198-7.275 9.952 9.952 0 0 1 4.25 0 9.517 9.517 0 0 1 7.198 7.275c.153.651.23 1.34.23 2.029 0 .727-.076 1.493-.268 2.221a9.57 9.57 0 0 1-7.16 7.083c-.651.115-1.379.23-2.106.23zm0-17.958c-.651 0-1.264.077-1.876.23-3.178.727-5.667 3.216-6.356 6.394a9.24 9.24 0 0 0-.192 1.8c0 .651.077 1.302.23 1.953.727 3.101 3.216 5.514 6.318 6.241a8.855 8.855 0 0 0 3.752 0c3.101-.689 5.552-3.14 6.318-6.241.153-.651.23-1.302.23-1.953 0-.613-.076-1.187-.192-1.8a8.42 8.42 0 0 0-6.318-6.394A8.19 8.19 0 0 0 16 7.614zm0 17.958a9.89 9.89 0 0 1-2.144-.23 9.572 9.572 0 0 1-7.16-7.083c-.153-.727-.268-1.493-.268-2.221 0-.689.077-1.379.23-2.029a9.519 9.519 0 0 1 7.198-7.275 9.952 9.952 0 0 1 4.25 0 9.517 9.517 0 0 1 7.198 7.275c.153.651.23 1.34.23 2.029 0 .727-.076 1.493-.268 2.221a9.57 9.57 0 0 1-7.16 7.083c-.651.115-1.379.23-2.106.23zm0-17.958c-.651 0-1.264.077-1.876.23-3.178.727-5.667 3.216-6.356 6.394a9.24 9.24 0 0 0-.192 1.8c0 .651.077 1.302.23 1.953.727 3.101 3.216 5.514 6.318 6.241a8.855 8.855 0 0 0 3.752 0c3.101-.689 5.552-3.14 6.318-6.241.153-.651.23-1.302.23-1.953 0-.613-.076-1.187-.192-1.8a8.42 8.42 0 0 0-6.318-6.394A8.19 8.19 0 0 0 16 7.614zm8.96 7.812h-4.825c-.268-1.838-1.723-3.331-3.561-3.561V7.041c0-.306-.268-.574-.574-.574s-.574.268-.574.574v4.824a4.224 4.224 0 0 0-3.561 3.561H7.041c-.306 0-.574.268-.574.574s.268.574.574.574h4.824a4.224 4.224 0 0 0 3.561 3.561v4.863c0 .306.268.574.574.574s.574-.268.574-.574v-4.863a4.224 4.224 0 0 0 3.561-3.561h4.825c.306 0 .574-.268.574-.574s-.23-.574-.574-.574zM16 19.025c-1.646 0-3.025-1.34-3.025-3.025s1.34-3.025 3.025-3.025 3.025 1.34 3.025 3.025A3.032 3.032 0 0 1 16 19.025z"/></symbol><symbol id="icon-simulators" viewBox="0 0 32 32"><path d="M16 5.318c-7.237 0-14.955 2.243-14.955 6.409v10.682c0 4.166 7.718 6.409 14.955 6.409s14.955-2.243 14.955-6.409V11.727c0-4.166-7.718-6.409-14.955-6.409zm0 2.137c7.931 0 12.818 2.484 12.818 4.273 0 1.095-1.789 2.35-4.593 3.178l-.748.24v1.656a26.696 26.696 0 0 0-3.205-.561v-.24c0-2.35-1.923-4.273-4.273-4.273s-4.273 1.923-4.273 4.273v.24c-1.148.134-2.216.32-3.205.561v-1.656l-.748-.24c-2.804-.828-4.593-2.083-4.593-3.178 0-1.789 4.887-4.273 12.818-4.273zm12.818 7.69v3.819c-.855-.614-1.923-1.122-3.205-1.576v-.694c1.282-.427 2.377-.935 3.205-1.549zM13.864 16c0-1.175.961-2.136 2.136-2.136s2.136.961 2.136 2.136-.961 2.136-2.136 2.136-2.136-.961-2.136-2.136zm-7.478 1.415c-1.282.427-2.35.961-3.205 1.576v-3.845c.828.588 1.923 1.122 3.205 1.549v.721zm-3.204 4.994c0-.881 1.148-1.896 3.205-2.697v5.421c-2.056-.828-3.205-1.869-3.205-2.724zm5.341 3.418v-6.81a28.46 28.46 0 0 1 3.899-.694c.134.214.294.427.481.614a6.417 6.417 0 0 0-3.311 5.608h2.136c0-2.35 1.923-4.273 4.273-4.273s4.273 1.923 4.273 4.273h2.136a6.417 6.417 0 0 0-3.311-5.608c.187-.187.347-.401.481-.614 1.442.16 2.751.401 3.899.694v6.81c-2.003.534-4.54.855-7.477.855s-5.474-.347-7.477-.855zm17.091-.694v-5.421c2.056.828 3.205 1.843 3.205 2.697s-1.148 1.896-3.205 2.724z"/><path d="M11.727 11.727a1.068 1.068 0 1 1-2.136 0 1.068 1.068 0 0 1 2.136 0z"/></symbol><symbol id="icon-sports" viewBox="0 0 32 32"><path d="m16 8.312-3.274-5.895H1.574l7.43 14.86a8.066 8.066 0 0 0-1.155 4.182 8.15 8.15 0 1 0 15.125-4.218l.02.036 7.43-14.86H19.272zm-4.876-3.178 3.314 5.977-1.548 2.798a8.177 8.177 0 0 0-1.972 1.167l.016-.012-4.958-9.929zM16 26.866A5.433 5.433 0 0 1 16 16a5.433 5.433 0 0 1 0 10.866zM26.024 5.134l-4.958 9.929a8.095 8.095 0 0 0-4.709-1.779l-.018-.001 4.537-8.15z"/></symbol><symbol id="icon-strategy" viewBox="0 0 32 32"><path d="M12 17.333c-3.733 0-6.667 2.933-6.667 6.667S8.266 30.667 12 30.667s6.667-2.933 6.667-6.667-2.933-6.667-6.667-6.667zM12 28c-2.267 0-4-1.733-4-4s1.733-4 4-4 4 1.733 4 4-1.733 4-4 4zm10.267-14.133 1.867 1.867 7.733-7.733L24.134.268l-1.867 1.867 4.4 4.533H20c-5.2 0-9.333 4-9.333 9.333h2.667c0-4 2.933-6.667 6.667-6.667h6.933l-4.667 4.533zM8.4 10.267 10.267 8.4 7.2 5.333l3.067-3.067L8.4.399 5.333 3.466 2.266.399.399 2.266l3.067 3.067L.399 8.4l1.867 1.867L5.333 7.2 8.4 10.267zm21.333 11.466L26.666 24.8l-3.067-3.067-1.867 1.867 3.067 3.067-3.067 3.067 1.867 1.867 3.067-3.067 3.067 3.067 1.867-1.867-3.067-3.067L31.6 23.6l-1.867-1.867z"/></symbol><symbol id="icon-windows" viewBox="0 0 32 32"><path d="M0 4.599 13 2.8v12.601H0zm14.599-2L32 0v15.2H14.599zM0 16.8h13v12.601L0 27.598zm14.599 0H32V32l-17.2-2.401z"/></symbol><symbol id="icon-download" viewBox="0 0 32 32"><path d="M31.333 22.133v6.133a3.067 3.067 0 0 1-3.067 3.067H3.733a3.067 3.067 0 0 1-3.067-3.067v-6.133h3.067v6.133h24.533v-6.133h3.067zm-13.8-5.235 5.049-5.049 2.168 2.168-8.751 8.751-8.751-8.751 2.168-2.168 5.049 5.049V.666h3.067v16.232z"/></symbol><symbol id="icon-filter" viewBox="0 0 32 32"><path d="M29.364 8.205H10.432a1.114 1.114 0 0 1 0-2.228h18.932a1.114 1.114 0 0 1 0 2.228zM5.977 8.205H2.636a1.114 1.114 0 0 1 0-2.228h3.341a1.114 1.114 0 0 1 0 2.228zM21.568 17.114H2.636a1.114 1.114 0 0 1 0-2.228h18.932a1.114 1.114 0 0 1 0 2.228zM10.432 26.023H2.637a1.114 1.114 0 0 1 0-2.228h7.795a1.114 1.114 0 0 1 0 2.228z"/><path d="M8.205 10.432a3.341 3.341 0 1 1 3.341-3.341 3.341 3.341 0 0 1-3.341 3.341zm0-4.455a1.114 1.114 0 1 0 1.114 1.114c0-.615-.499-1.114-1.114-1.114zM23.795 19.341A3.341 3.341 0 1 1 27.136 16a3.341 3.341 0 0 1-3.341 3.341zm0-4.455A1.114 1.114 0 1 0 24.909 16c0-.615-.499-1.114-1.114-1.114zM12.659 28.25A3.341 3.341 0 1 1 16 24.909a3.341 3.341 0 0 1-3.341 3.341zm0-4.455a1.114 1.114 0 1 0 1.114 1.114c0-.615-.499-1.114-1.114-1.114z"/><path d="M29.364 17.114h-3.341a1.114 1.114 0 0 1 0-2.228h3.341a1.114 1.114 0 0 1 0 2.228zM29.364 26.023H14.887a1.114 1.114 0 0 1 0-2.228h14.477a1.114 1.114 0 0 1 0 2.228z"/></symbol><symbol id="icon-iOS" viewBox="0 0 32 32"><path d="M21.633 8.3c-2.225.027-4.286 1.459-5.426 1.459-1.232 0-3.141-1.397-5.159-1.362-2.656.039-5.103 1.544-6.47 3.922-2.758 4.784-.706 11.874 1.981 15.757 1.314 1.898 2.881 4.033 4.937 3.955 1.981-.078 2.728-1.281 5.123-1.281s3.067 1.282 5.163 1.241c2.13-.039 3.481-1.934 4.784-3.84 1.508-2.205 2.129-4.34 2.166-4.448-.046-.022-4.153-1.594-4.196-6.324-.039-3.961 3.23-5.861 3.377-5.957-1.837-2.687-4.7-3.055-5.719-3.097a4.995 4.995 0 0 0-.456-.025h-.106zm-9.392 6.836c.765-.003 1.531.16 2.123.459.291.147.68.429.915.664.646.644 1.035 1.525 1.174 2.66a9.067 9.067 0 0 1-.014 1.553c-.214 1.6-.957 2.731-2.17 3.306-.702.333-1.628.475-2.525.389a4.264 4.264 0 0 1-1.546-.436c-1.177-.585-1.894-1.704-2.104-3.283a8.362 8.362 0 0 1-.002-1.59c.197-1.543.917-2.679 2.063-3.255.566-.284 1.036-.405 1.758-.454.109-.007.218-.012.328-.012zm8.987.002a4.32 4.32 0 0 1 1.255.2c.235.08.583.249.75.364.067.046.215.173.329.283.408.392.61.812.612 1.275a.613.613 0 0 1-.078.356c-.185.375-.54.54-.921.427-.195-.058-.315-.205-.61-.746-.152-.279-.346-.527-.515-.655-.25-.191-.643-.279-1.151-.258-.532.022-.865.147-1.155.431-.206.202-.271.367-.256.652.013.24.069.367.241.539.231.231.527.36 1.265.554 1.613.424 2.056.581 2.554.906.287.187.473.365.632.604.267.401.37.772.37 1.331 0 .4-.039.632-.166.971-.235.627-.75 1.162-1.404 1.46-.645.294-1.537.42-2.4.336-.505-.049-1.02-.192-1.395-.387-.666-.346-1.195-.976-1.394-1.659-.074-.255-.092-.562-.041-.736a.756.756 0 0 1 .377-.442.578.578 0 0 1 .348-.082c.401 0 .56.162.886.903.235.534.471.806.855.986.283.132.771.191 1.183.143 1.044-.123 1.649-.834 1.398-1.642-.117-.376-.492-.66-1.121-.85-.165-.05-.548-.153-.852-.228-1.31-.326-1.964-.632-2.422-1.135a2.089 2.089 0 0 1-.452-.843c-.082-.315-.082-.903 0-1.203.235-.864.897-1.446 1.946-1.713.408-.104.875-.15 1.331-.139zm-15.368.071a.807.807 0 0 1 .572.233c.141.135.204.305.205.549.001.18-.008.222-.08.367a.72.72 0 0 1-.437.379.928.928 0 0 1-.55-.009c-.351-.137-.506-.365-.505-.741 0-.219.07-.389.217-.532a.84.84 0 0 1 .577-.246zm6.305 1.333c-.43.004-.608.047-.963.219-.567.273-.958.748-1.193 1.449-.283.844-.281 2.029.004 2.883.303.908.907 1.481 1.753 1.662.245.052.913.033 1.127-.032.778-.238 1.279-.712 1.581-1.496.387-1.002.34-2.519-.106-3.403a2.25 2.25 0 0 0-1.076-1.07c-.357-.171-.546-.21-1.038-.211h-.089zm-6.319 1.034c.168 0 .213.011.355.083a.792.792 0 0 1 .392.454c.044.122.047.263.055 2.609.005 1.631-.001 2.549-.019 2.679-.046.349-.194.585-.442.706a.891.891 0 0 1-.524.063.794.794 0 0 1-.545-.525l-.056-.166-.009-2.482c-.005-1.616.002-2.549.019-2.676.032-.242.092-.381.226-.526.143-.155.305-.22.547-.22zM20.599 5.756c1.09-1.323 1.829-3.162 1.628-4.993-1.573.064-3.477 1.046-4.607 2.367-1.012 1.173-1.896 3.041-1.659 4.839 1.755.136 3.545-.893 4.638-2.214z"/></symbol><symbol id="icon-password" viewBox="0 0 32 32"><path d="M21.357 1h-.002a9.64 9.64 0 0 0-9.64 9.64c0 .999.152 1.963.434 2.869l-.018-.068-11.13 11.13V31H7.43l11.13-11.13a9.431 9.431 0 0 0 2.802.416c5.326 0 9.643-4.317 9.643-9.643S26.688 1 21.362 1h-.003zm0 17.143a7.508 7.508 0 0 1-2.231-.338l.053.014-1.229-.373-4.316 4.316-1.477-1.477-1.515 1.515 1.477 1.477-1.699 1.699-1.477-1.477-1.515 1.515 1.477 1.477-2.365 2.365H3.142v-3.398l11.41-11.41-.372-1.229a7.5 7.5 0 1 1 7.177 5.323h-.001z"/><path d="M24.571 9.571a2.143 2.143 0 1 1-4.286 0 2.143 2.143 0 0 1 4.286 0z"/></symbol><symbol id="icon-hidden-password" viewBox="0 0 32 32"><path d="m26.282 1.274.41.24a.965.965 0 0 1 .346 1.31L11.424 30.237a.94.94 0 0 1-1.293.351l-.41-.24a.965.965 0 0 1-.346-1.31l2.305-4.046C7.692 23.685 3.927 20.577.731 15.83a.543.543 0 0 1 .001-.654l.015-.022.017-.025c4.331-6.408 9.701-9.817 15.252-9.817 2.066 0 4.107.472 6.079 1.395l2.894-5.082a.94.94 0 0 1 1.293-.351zM20.84 8.911c-1.605-.707-3.225-1.051-4.823-1.051-4.034 0-8.209 2.194-11.917 6.867a1.26 1.26 0 0 0 0 1.551c2.78 3.503 5.822 5.613 8.87 6.451l1.594-2.798c-1.821-.581-3.326-2.201-3.326-4.425 0-2.814 2.157-5.096 4.817-5.096 1.228 0 2.349.486 3.2 1.286l1.586-2.785zm-2.901 5.094c-.41-.635-1.083-1.048-1.884-1.048-1.331 0-2.42 1.139-2.42 2.546 0 .93.997 2.017 2.25 2.108l2.054-3.606zM16.813 25.671c5.256-.309 10.313-3.676 14.43-9.753a.716.716 0 0 0 .134-.416.675.675 0 0 0-.123-.395c-1.582-2.339-3.304-4.278-5.122-5.796l-1.253 2.2a23.487 23.487 0 0 1 3.056 3.216 1.26 1.26 0 0 1 0 1.551c-2.983 3.759-6.268 5.915-9.539 6.614l-1.583 2.779z"/></symbol><symbol id="icon-view-password" viewBox="0 0 32 32"><path d="M20.503 17.7c-.16.363-.361.703-.595 1.015-.894 1.192-2.287 1.958-3.852 1.958-2.447 0-4.894-1.85-4.894-4.671s2.191-5.107 4.894-5.107c2.703 0 4.894 2.287 4.894 5.107 0 .325-.16 1.049-.447 1.698zm-4.448.419a2.38 2.38 0 0 0 1.601-.622c.519-.468.747-1.16.747-1.495 0-1.41-.995-2.554-2.348-2.554S13.596 14.59 13.596 16c0 .974 1.106 2.119 2.459 2.119z"/><path d="M.489 16.327a.537.537 0 0 1 .001-.655l.033-.047c4.399-6.423 9.855-9.84 15.495-9.84 5.634 0 11.085 3.407 15.479 9.817a.675.675 0 0 1 .125.396.71.71 0 0 1-.137.417c-4.393 6.398-9.839 9.798-15.468 9.798-5.654 0-11.124-3.433-15.528-9.887zm3.421-1.105a1.249 1.249 0 0 0 0 1.555c3.767 4.684 8.009 6.884 12.107 6.884s8.34-2.2 12.107-6.884a1.249 1.249 0 0 0 0-1.555c-3.767-4.684-8.009-6.882-12.107-6.882s-8.34 2.199-12.107 6.882z"/></symbol><symbol id="icon-arrow-slider" viewBox="0 0 32 32"><path stroke-linecap="round" stroke-linejoin="round" stroke-width="2.667" d="m10 30 14-14L10 2"/></symbol><symbol id="icon-date" viewBox="0 0 32 32"><path d="M26.667 2.667h-1.333V1.334a1.333 1.333 0 0 0-2.666 0v1.333H9.335V1.334a1.333 1.333 0 0 0-2.666 0v1.333H5.336A5.333 5.333 0 0 0 .003 8v18.667A5.333 5.333 0 0 0 5.336 32h21.333a5.333 5.333 0 0 0 5.333-5.333V8a5.333 5.333 0 0 0-5.333-5.333zm2.666 24a2.667 2.667 0 0 1-2.667 2.667H5.333a2.667 2.667 0 0 1-2.667-2.667V8a2.667 2.667 0 0 1 2.667-2.667h1.333v1.333a1.333 1.333 0 0 0 2.666 0V5.333h13.333v1.333a1.333 1.333 0 0 0 2.666 0V5.333h1.333A2.667 2.667 0 0 1 29.331 8z"/><path d="M25.333 9.333H6.666a1.333 1.333 0 0 0 0 2.666h18.667a1.333 1.333 0 0 0 0-2.666zM9.333 16H6.666a1.333 1.333 0 0 0 0 2.666h2.667a1.333 1.333 0 0 0 0-2.666zM9.333 22.667H6.666a1.333 1.333 0 0 0 0 2.666h2.667a1.333 1.333 0 0 0 0-2.666zM17.333 16h-2.667a1.333 1.333 0 0 0 0 2.666h2.667a1.333 1.333 0 0 0 0-2.666zM17.333 22.667h-2.667a1.333 1.333 0 0 0 0 2.666h2.667a1.333 1.333 0 0 0 0-2.666zM25.333 16h-2.667a1.333 1.333 0 0 0 0 2.666h2.667a1.333 1.333 0 0 0 0-2.666zM25.333 22.667h-2.667a1.333 1.333 0 0 0 0 2.666h2.667a1.333 1.333 0 0 0 0-2.666z"/></symbol><symbol id="icon-setting" viewBox="0 0 32 32"><path d="M18.37 31.813h-4.599a1.143 1.143 0 0 1-1.136-1.017v-.005l-.341-3.206a11.432 11.432 0 0 1-1.457-.606l.067.03-2.506 2.027a1.144 1.144 0 0 1-1.524-.08l-3.252-3.252a1.14 1.14 0 0 1-.079-1.526l-.002.002 2.027-2.509a10.745 10.745 0 0 1-.552-1.309l-.025-.081-3.212-.343a1.143 1.143 0 0 1-1.022-1.136v-4.6c0-.588.445-1.073 1.017-1.135h.005l3.206-.341c.19-.555.385-1.014.607-1.457l-.03.067-2.027-2.509a1.144 1.144 0 0 1 .08-1.524l3.252-3.252a1.14 1.14 0 0 1 1.526-.079l-.002-.002L10.9 5.997c.376-.192.835-.386 1.309-.551l.082-.025.341-3.206a1.145 1.145 0 0 1 1.137-1.025h4.601c.589 0 1.073.445 1.136 1.017v.005l.34 3.206c.555.19 1.015.384 1.458.607l-.067-.031 2.508-2.027a1.144 1.144 0 0 1 1.524.08l3.252 3.252a1.14 1.14 0 0 1 .079 1.526l.002-.002-2.027 2.509c.191.376.386.835.552 1.308l.025.082 3.206.341a1.145 1.145 0 0 1 1.022 1.136V18.801c0 .587-.443 1.071-1.013 1.135h-.005l-3.206.341c-.19.555-.385 1.015-.607 1.458l.031-.067 2.027 2.509a1.144 1.144 0 0 1-.08 1.524l-3.252 3.254a1.14 1.14 0 0 1-1.526.079l.002.002-2.508-2.027c-.376.192-.836.386-1.309.551l-.082.025-.34 3.206a1.144 1.144 0 0 1-1.136 1.022h-.004zm-3.572-2.286h2.544l.312-2.938c.052-.475.389-.86.835-.982l.008-.002a9.353 9.353 0 0 0 2.341-.978l-.044.024a1.136 1.136 0 0 1 1.297.102l-.002-.002 2.297 1.857 1.799-1.799-1.86-2.291a1.146 1.146 0 0 1-.097-1.301l-.003.005a9.14 9.14 0 0 0 .936-2.23l.015-.065c.124-.454.509-.791.979-.842h.005l2.937-.312v-2.544l-2.937-.312a1.144 1.144 0 0 1-.982-.835l-.002-.008a9.327 9.327 0 0 0-.975-2.341l.024.044a1.136 1.136 0 0 1 .102-1.297l-.002.002 1.857-2.297-1.799-1.799-2.297 1.857a1.146 1.146 0 0 1-1.301.097l.005.003a9.14 9.14 0 0 0-2.23-.936l-.066-.015a1.145 1.145 0 0 1-.842-.978v-.005l-.308-2.934h-2.545l-.312 2.938c-.052.476-.389.86-.835.982l-.008.002a9.377 9.377 0 0 0-2.337.978l.044-.024a1.136 1.136 0 0 1-1.297-.102L7.761 6.391 5.963 8.19l1.857 2.297a1.135 1.135 0 0 1 .096 1.3l.003-.005a9.178 9.178 0 0 0-.936 2.23l-.015.066a1.145 1.145 0 0 1-.978.842h-.005l-2.938.312v2.543l2.938.312c.475.052.86.389.982.835l.002.008c.236.871.561 1.634.975 2.338l-.024-.044a1.136 1.136 0 0 1-.1 1.297l-1.855 2.292 1.799 1.799 2.298-1.857a1.146 1.146 0 0 1 1.301-.097l-.005-.003c.66.391 1.423.716 2.23.936l.066.015c.454.123.791.508.843.978v.005zM30.24 18.8z"/><path d="M16.071 23.461a6.96 6.96 0 1 1 6.961-6.96 6.968 6.968 0 0 1-6.96 6.96zm0-11.635a4.674 4.674 0 1 0 4.674 4.674 4.679 4.679 0 0 0-4.675-4.674z"/></symbol><symbol id="icon-delete" viewBox="0 0 24 24"><path d="M5.755 20.283 4 8h16l-1.755 12.283A2 2 0 0 1 16.265 22h-8.53a2 2 0 0 1-1.98-1.717ZM21 4h-5V3a1 1 0 0 0-1-1H9a1 1 0 0 0-1 1v1H3a1 1 0 0 0 0 2h18a1 1 0 0 0 0-2Z"/></symbol><symbol id="icon-edit" viewBox="0 0 32 32"><path d="m21.333 2.683 4 4-3.049 3.051-4-4zm-16 15.984v4h4l11.065-11.049-4-4zm0 8h21.333v2.667H5.333z"/></symbol><symbol id="icon-email" viewBox="0 0 32 32"><path d="M16 29.333c-1.822 0-3.544-.35-5.167-1.051s-3.039-1.655-4.249-2.867c-1.212-1.211-2.167-2.627-2.867-4.249s-1.051-3.345-1.051-5.167c0-1.845.35-3.572 1.051-5.183s1.655-3.023 2.867-4.233c1.211-1.212 2.627-2.168 4.249-2.868S14.177 2.666 16 2.666c1.845 0 3.572.35 5.183 1.049a13.536 13.536 0 0 1 7.1 7.101c.7 1.611 1.051 3.338 1.051 5.183v1.933c0 1.311-.45 2.428-1.349 3.349s-2.006 1.384-3.317 1.384c-.8 0-1.544-.178-2.233-.533s-1.256-.822-1.7-1.4a6.638 6.638 0 0 1-4.733 1.933c-1.844 0-3.416-.65-4.716-1.951s-1.951-2.872-1.951-4.716c0-1.845.65-3.417 1.951-4.717s2.872-1.949 4.716-1.949c1.845 0 3.417.65 4.717 1.949 1.299 1.3 1.949 2.873 1.949 4.717v1.933c0 .645.2 1.15.6 1.516s.867.551 1.4.551 1-.184 1.4-.551c.4-.366.6-.872.6-1.516v-1.933c0-2.911-1.05-5.417-3.151-7.517-2.099-2.1-4.605-3.149-7.516-3.149s-5.417 1.05-7.517 3.149c-2.1 2.1-3.149 4.606-3.149 7.517s1.05 5.416 3.149 7.516c2.1 2.1 4.606 3.151 7.517 3.151h6.667v2.667h-6.667zM16 20c1.111 0 2.056-.389 2.833-1.167S20 17.111 20 16s-.389-2.056-1.167-2.833C18.055 12.389 17.111 12 16 12s-2.056.389-2.833 1.167C12.389 13.945 12 14.889 12 16s.389 2.056 1.167 2.833C13.945 19.611 14.889 20 16 20z"/></symbol><symbol id="icon-facebook" viewBox="0 0 32 32"><path d="M31.25 16a15.25 15.25 0 1 0-15.248 15.248 15.266 15.266 0 0 0 15.25-15.25zM17.173 28.845v-9.326h3.519a1.174 1.174 0 0 0 1.172-1.172 1.174 1.174 0 0 0-1.172-1.172h-3.519v-3.519a2.346 2.346 0 0 1 2.346-2.346h2.346a1.17 1.17 0 0 0 1.172-1.173 1.174 1.174 0 0 0-1.172-1.173h-2.346a4.705 4.705 0 0 0-4.693 4.693v3.519h-3.519a1.174 1.174 0 0 0-1.173 1.172 1.17 1.17 0 0 0 1.173 1.172h3.519v9.326A12.906 12.906 0 0 1 3.108 15.408a12.9 12.9 0 0 1 12.89-12.316 12.902 12.902 0 0 1 1.172 25.754z"/></symbol><symbol id="icon-instagram" viewBox="0 0 32 32"><path stroke-linecap="round" stroke-linejoin="round" stroke-width="2.1" d="M16 22a5.996 5.996 0 0 0 6-6 5.996 5.996 0 0 0-6-6 6.002 6.002 0 0 0-4.243 10.243A6 6 0 0 0 16 22z"/><path stroke-width="2.1" d="M2.5 22V10A7.497 7.497 0 0 1 10 2.5h12a7.497 7.497 0 0 1 7.5 7.5v12a7.497 7.497 0 0 1-7.5 7.5H10A7.497 7.497 0 0 1 2.5 22z"/><path stroke-linecap="round" stroke-linejoin="round" stroke-width="2.1" d="m24.25 7.766.016-.017"/></symbol><symbol id="icon-burger" viewBox="0 0 46 32"><path d="M45.714 29.726A2.274 2.274 0 0 1 43.44 32H25.131a2.274 2.274 0 1 1 0-4.548H43.44a2.273 2.273 0 0 1 2.274 2.274zm0-13.726a2.274 2.274 0 0 1-2.274 2.274H2.274a2.274 2.274 0 1 1 0-4.548H43.44A2.274 2.274 0 0 1 45.714 16zM43.44 4.549a2.274 2.274 0 1 0 0-4.548H15.989a2.274 2.274 0 1 0 0 4.548H43.44z"/></symbol><symbol id="icon-arrow-for-more" viewBox="0 0 32 32"><path d="M31.771 16.552a.78.78 0 0 0 0-1.104l-4.967-4.967a.78.78 0 1 0-1.104 1.104L30.115 16 25.7 20.415a.78.78 0 1 0 1.104 1.104l4.967-4.967zM0 16.78h31.22v-1.561H0v1.561z"/></symbol><symbol id="icon-close" viewBox="0 0 32 32"><path stroke-linecap="round" stroke-width="2" d="m8 8 8 8 8-8M8 24l8-8 8 8"/></symbol><symbol id="icon-pagination-arrow" viewBox="0 0 14 14"><path d="M4.17 12.308a.708.708 0 0 1-.218-.518c0-.199.073-.371.219-.517L8.444 7 4.156 2.713a.693.693 0 0 1-.204-.51c0-.205.073-.38.219-.526a.708.708 0 0 1 .518-.219c.199 0 .371.073.517.22l4.9 4.914c.059.058.1.121.124.19a.648.648 0 0 1 .037.218c0 .078-.012.15-.037.219a.515.515 0 0 1-.124.19l-4.914 4.914a.683.683 0 0 1-.503.204.708.708 0 0 1-.518-.219Z"/></symbol><symbol id="icon-star" viewBox="0 0 16 16"><path d="m8 0 1.796 5.528h5.813l-4.703 3.416 1.796 5.528L8 11.056l-4.702 3.416 1.796-5.528L.392 5.528h5.812L8 0Z"/></symbol><symbol id="icon-sort-arrows" fill="none" viewBox="0 0 24 24"><path d="M8.354 3.646a.5.5 0 0 0-.708 0L4.464 6.828a.5.5 0 1 0 .708.708L8 4.707l2.828 2.829a.5.5 0 1 0 .708-.708L8.354 3.646ZM7.5 4v16h1V4h-1ZM15.646 20.354a.5.5 0 0 0 .708 0l3.181-3.182a.5.5 0 1 0-.707-.707L16 19.293l-2.828-2.828a.5.5 0 1 0-.708.707l3.182 3.182ZM15.5 4v16h1V4h-1Z"/></symbol></defs></svg>