<svg xmlns="http://www.w3.org/2000/svg" width="176" height="58" viewBox="0 0 484 162.4"><path d="M5.613 2.346v79.2h78.4v78.4h77.6v-79.2h-77.6v-78.4h-78.4m62.4 69.6h-40.8c1.158-7.725 6.401-11.493 12-16.34 1.917-1.66 6.122-4.543 5.335-7.561-.787-3.021-4.103-2.356-6.166-1.427-5.663 2.549-19.676 9.325-19.047-3.472.693-14.083 25.464-17.713 17.478-33.6 4.413.091 8.75.83 12.8 2.65 26.898 12.093 18.59 36.822 18.4 59.75m40-59.2v35.2c0 6.056 4.151 13.267 7.463 3.996 3.312-9.27 5.468-28.154 12.852-34.837 2.825-2.557 6.784-.803 10.085-.359-1.222-7.324-24.114-4-30.4-4m73.135.91c-2.28 1.273-1.923 4.91-1.934 7.09-.034 6.4 0 12.8 0 19.2v80.8c0 7.455-.223 14.948.011 22.4.063 2.004.593 6.762 3.841 5.395 5.252-2.21 2.547-21.348 2.547-26.195v-82.4c0-7.156.418-14.455-.035-21.597-.134-2.122-1.353-6.413-4.43-4.694m-35.535 55.891c2.789-12.05 13.01-26.724 12.534-39.114-.2-5.198-16.333-8.028-20.534-9.42-1.91-.632-4.833-2.122-6.792-.969-2.387 1.405-3.065 6.276-3.874 8.703-2.489 7.465-4.85 14.987-7.487 22.4-.837 2.35-3.438 6.606-1.792 9.038 1.335 1.974 5.038 2.526 7.145 3.229 6.756 2.252 13.614 5.805 20.8 6.133m-42.4-47.2-16 5.6 9.94 31.2 4.795 9.883 14.065-3.483-11.653-10.403-1.147-32.797m129.6 1.6v.8c6.207 0 18.435-2.348 23.818.943 3.877 2.371 3.877 12.543 0 14.914-5.74 3.51-16.916-2.593-21.735 2.226-2.806 2.806-2.806 22.628 0 25.434 2.304 2.304 7.74 1.283 10.717 1.283 0-3.804-1.358-10.878.823-14.146 2.097-3.143 13.77-2.884 16.43-.571 4.349 3.779 2.102 18.178 1.935 23.517-.075 2.376-.33 5.008-2.57 6.378-2.675 1.636-7.214.822-10.218.822-8.784 0-19.721 1.738-28-1.706-10.441-4.345-9.6-14.505-9.6-23.894 0-13.552-2.953-33.427 16-34.4v-.8c-10.539.225-24.406 10.496-27.369 20.8-1.952 6.79-.63 15.376-.63 22.4 0 10.089.146 21.496 11.2 26.014 14.104 5.764 41.466 4.827 50.606-8.55 3.797-5.558 1.556-18.903 1.381-25.464-.072-2.715-.265-5.9-3.294-6.853-11.832-3.724-19.05 3.206-27.894 9.253v-11.2c11.514 0 25.582-3.494 25.6-17.6.003-2.468.58-6.213-1.393-8.114-4.393-4.23-19.976-1.486-25.807-1.486m63.2 0v.8h24l-24-.8m76.8 51.2 9.6-5.6c0 5.773-2.567 19.645.823 24.389 1.796 2.515 6.1 2.007 8.777 2.011 8.047.013 16.471-3.045 20.778-10.628 1.958-3.449.822-9.524.822-13.372v-32.8c0-3.49 1.43-11.15-1.282-13.806-3.149-3.082-12.216-1.394-16.318-1.394v.8c3.96 0 12.467-1.591 15.518 1.394 2.615 2.56 1.282 9.654 1.282 13.006v32c0 3.428 1.162 9.573-.822 12.546-2.083 3.122-14.672 3.122-16.755 0-2.268-3.398-.823-10.999-.823-14.946v-15.2h-.8c-3.053 5.227-9.18 16.736-16.29 8.617-1.935-2.21-3.035-5.29-4.51-7.817h-.8v15.2c0 3.805 1.182 10.098-.822 13.482-2.238 3.779-14.267 3.958-16.984.664-2.587-3.136-1.394-9.558-1.394-13.346v-31.2c0-3.648-1.005-9.411 1.487-12.453 2.981-3.639 11.896-1.947 16.113-1.947-9.35-3.924-24.65 1.272-28.317 11.2-3.56 9.638-.483 25.716-.483 36 0 5.264-2.29 17.631.823 21.989 2.027 2.837 7.383 2.016 10.377 2.011 12.141-.02 20-9.338 20-20.8m91.2-6.4v-.8c11.26-5.158 4.966-11.96 8.362-20.768 2.115-5.488 13.443-16.07 4.438-22.432 8.294 19.573-11.93 16-24.8 16v6.4c4.598 0 13.404-1.687 17.346.943 2.945 1.966 2.949 11.467 0 13.435-3.826 2.552-12.857.822-17.346.822v7.2h12.8c3.241 0 8.183-.894 11.082.822 3.381 2.003 4.06 12.09.664 14.356-2.53 1.688-7.251.822-10.146.822-7.647 0-24.465 3.184-31.017-.822-3.812-2.33-2.583-9.025-2.583-12.778v-33.6c0-3.585-1.015-9.534 2.011-12.206 2.72-2.402 8.244-1.394 11.59-1.394h29.6c-4.371-1.834-10.491-.8-15.2-.8-13.112 0-31.132-3.223-38.378 11.2-3.436 6.838-.823 20.403-.823 28v23.2c0 2.655-.753 6.852 1.855 8.546 3.034 1.97 8.306 1.054 11.745 1.054 9.712 0 26.308 3.206 34.4-2.823 4.732-3.526 16.687-17.467 7.746-23.434-3.227-2.153-9.62-.943-13.346-.943m-160.8 12c0 3.778-1.149 10.09 1.487 13.189 7.164 8.424 23.867-1.703 28.659-7.66 2.88-3.58 1.854-9.222 1.854-13.529 0-12.812-1.882-22.39-6.36-34.4-1.7-4.562-2.96-12-8.04-13.6v.8c3.858 3.135 5.131 8.253 6.861 12.8 4.19 11.017 6.74 20.177 6.74 32 0 3.602 1.256 10.23-.823 13.346-2.227 3.338-14.644 2.908-17.095 0-2.441-2.897-1.283-9.001-1.283-12.546h-15.2c0 3.454 1.167 9.565-.822 12.546-2.355 3.53-14.537 2.878-16.635-.664-2.062-3.484-.943-9.581-.943-13.482 0-11.38 3.035-20.652 7.047-31.2 1.712-4.503 2.839-9.558 6.553-12.8-7.097-.946-14.204 10.393-16.339 16-6.191 16.257-11.328 32.605-8.342 50.356 1.39 8.262 18.283 3.437 22.281.229 4.377-3.51 6.836-7.368 10.4-11.385m68-56v.8l11.936 16.291 12.064-16.29v-.8l-16 12c-1.316-4.56-3.666-9.755-8-12M38.9 27.18c-2.256 1.776.823 4.818 2.889 3.132 2.188-1.786-.789-4.785-2.889-3.132m216.314 51.166v-16.8h-.8v16c-7.757 0-20.876 2.33-27.085-3.423-5.906-5.473-4.392-24.354-3.052-31.777.53-2.934 2.004-5.686 4.572-7.314 5.512-3.492 16.058-1.486 22.365-1.486-5.801-2.434-22.572-2.615-26.328 3.286-3.294 5.176-1.672 14.047-1.672 19.914 0 5.551-1.451 13.755 2.735 18.177 5.844 6.173 21.567 3.423 29.265 3.423m36-.8h.8v-13.6h32.8v14.4c4.755-11.33-.84-27.18-5.376-37.6-2.93-6.731-10.913-11.628-18.453-7.178-3.26 1.924-4.459 7.088-5.77 10.378-4.485 11.245-4 21.675-4 33.6m71.2-44.8v45.6h.8v-44.8c9.746 1.537 10.078 19.384 19.227 20.27 9.064.879 10.888-18.838 19.972-20.27v44h.8v-44.8c-7.572.246-10.357 7.95-14.133 13.6-1.321 1.977-3.124 5.891-5.939 5.891-3.037 0-5.124-3.725-6.591-5.89-3.872-5.72-6.345-13.348-14.137-13.6m80 0v45.6h28v-.8h-27.2v-22.4h20.8v-.8h-20.8v-20.8h27.2l-28-.8m-117.6 29.6h-32.8c.001-7.288 2.56-23.99 9.687-27.979 15.532-8.692 22.892 17.282 23.113 27.978m-23.2-6.4 12.8-.8-4-13.6c-6.933.228-8.279 8.438-8.8 14.4M36.813 85.12c-8.329 1.612-16.038 10.695-22.397 15.937-2.048 1.69-6.053 4.29-5.033 7.51.921 2.906 5.766 3.25 8.23 3.883 7.397 1.902 17.953 7.222 25.6 5.466 8.27-1.898 15.13-11.422 20.797-17.17 2.034-2.063 6.002-5.265 4.922-8.629-.921-2.873-4.827-3.34-7.319-3.85-7.592-1.557-17.068-4.642-24.8-3.147m72 7.626v8.8h8.8v-8.8h9.6v8.8h8.8v-8.8h8.8c0 4.772 1.365 11.982-1.947 15.885-5.518 6.505-23.114 3.405-30.853 3.312-3.263-.04-6.895-.219-9.377-2.64-4.013-3.915-2.623-11.476-2.623-16.557h8.8m-68 3.496c8.41-.9 3.594 7.137-2.4 7.616-8.702.697-3.325-7.005 2.4-7.616m29.6.573c-3.976 1.653-7.413 6.544-10.4 9.531-9.546 9.546-14.768 14.3-10.863 28 1.2 4.208 3.672 21.596 10.055 20.088 3.728-.882 6.712-6.136 9.006-8.888 8.826-10.591 13.525-16.417 10.845-30.4-.773-4.032-1.539-21.285-8.643-18.331m-.063 6.268c4.47-.666 3.145 9.949-.777 10.526-4.837.712-3.44-9.897.777-10.526M9.735 112.8c-5.365 1.39 2.67 16.024 3.838 19.146 4.942 13.211 10.736 15.896 23.24 21.14 3.654 1.532 8.6 4.453 12.713 3.302 6.224-1.744-1.016-17.13-2.2-21.242-4.15-14.415-11.995-16.226-25.713-19.7-3.215-.815-8.613-3.491-11.878-2.646m192.678-.054v24.8h2.4v-20h.8c2.297 5.92 5.827 18.865 12.8 20v-24.8h-2.4v19.2c-3.897-5.52-5.917-18.589-13.6-19.2m20 0v8h2.4v-5.6h5.6v20h-4v2.4h10.4v-2.4h-4v-20h5.6v5.6h2.4v-8h-18.4m22.4 0c0 6.176-1.61 15.098 1.147 20.785 2.658 5.481 11.136 5.308 13.91 0 2.771-5.303.943-14.906.943-20.785h-2.4c0 4.637 2.497 24.204-6.365 22.302-6.683-1.433-4.035-17.31-4.035-22.302h-3.2m43.2 0v24.8h2.4l1.6-12h1.6c1.787 4.714 5.06 11.137 10.4 12l-9.6-13.6v-.8l9.6-10.4c-6.097.94-9.53 7.044-13.6 11.2v-11.2h-2.4m20.8 0v24.8h3.2c-.257-3.786 2.061-22.812 9.007-13.478 2.517 3.383 1.393 9.498 1.393 13.478h2.4c0-10.345.044-22.987-13.6-15.2l.8-9.6h-3.2m21.6 0v24.8h2.4v-10.4c3.667 0 7.873.402 11.113-1.672 4.074-2.607 4.186-9.028-.084-11.562-3.645-2.164-9.354-1.166-13.429-1.166m24 0v2.4h4v20h-4v2.4h10.4v-2.4h-4v-20h4v-2.4h-10.4m-217.6 2.4v24.8h-28.8v-24.8h28.8m196 9.6v-9.6c2.704 0 6.161-.526 8.693.594 3.157 1.396 3.594 5.935.664 7.84-2.602 1.692-6.406 1.166-9.357 1.166m-276.812-7.263c5.253-.727 3.544 11.282-1.513 11.922-5.418.686-3.024-11.293 1.513-11.922m-43.188.063c2.621.143 13.232 5.067 8.283 8.734-4.567 3.383-8.12-5.77-8.283-8.734m52.757 3.002c4.949-1.298 2.927 9.216-.756 10.321-4.673 1.403-3.39-9.235.756-10.321m9.404 2.075c3.559.066 1.652 9.781-2.086 9.846-4.389.076-1.948-9.922 2.086-9.846m-41.23 1.093c3.919-1.236 11.29 7.403 6.803 9.312-4.49 1.91-12.01-7.67-6.803-9.312m-5.73 21.83c-4.52-1.447-7.356-3.993-8-8.8 5.115.343 9.257 3.297 8 8.8m32.836-7.398c5.005-1.313 2.95 9.075-.834 10.2-4.806 1.43-3.204-9.142.834-10.2m-20.58 5.568c3.919-1.372 10.103 7.224 5.885 8.368-3.519.954-10.538-6.739-5.884-8.368m106.142 7.43h-46.4c.352-4.526 3.64-6.37 8-7.03 8.792-1.33 20.8-1.27 29.6-.002 4.425.638 8.423 2.297 8.8 7.032z" style="display:inline;fill:#ff4747;stroke:none;stroke-width:.8;stroke-miterlimit:4;stroke-dasharray:none"/><path d="M287.954 125.146v-12.438h2.487l.017 5.56.018 5.561.734-.81c.404-.445 1.489-1.696 2.411-2.78 3.711-4.356 5.975-6.212 8.672-7.108.637-.211 1.687-.452 1.74-.399.017.017-2.133 2.374-4.776 5.238l-4.807 5.207v.742l4.805 6.808c2.642 3.744 4.79 6.821 4.773 6.84-.018.017-.353-.05-.745-.148-.869-.219-1.996-.758-2.854-1.365-1.279-.905-2.788-2.615-3.986-4.516-.637-1.01-1.93-3.613-2.444-4.921l-.413-1.051-.778-.002c-.5-.002-.777.023-.777.07 0 .09-1.504 11.416-1.557 11.727l-.039.224h-2.481zm20.8 0v-12.438h3.307l-.036.362c-.08.82-.765 9.14-.754 9.154.007.008.496-.232 1.087-.534 3.043-1.555 5.499-2.098 7.349-1.624 2.539.65 4.052 3.1 4.696 7.602.294 2.051.449 4.872.45 8.206l.002 1.71h-2.488v-.272c0-.15.052-1.185.114-2.298.154-2.713.154-5.557.002-6.662-.35-2.542-1.114-4.11-2.767-5.673-1.32-1.248-2.452-1.44-3.584-.607-.86.633-1.755 2.216-2.427 4.296-.91 2.816-1.613 7.128-1.654 10.154l-.015 1.063h-3.282zm21.629 0v-12.438h.51c.28 0 1.485-.05 2.677-.111 2.564-.131 5.428-.099 6.557.073 1.5.229 2.784.644 3.724 1.204 2.117 1.261 3.294 3.548 3.166 6.153-.174 3.539-2.539 6.015-6.503 6.81-1.452.292-2.194.343-5 .345l-2.643.002v10.4h-2.488zm8.626-.518c2.763-.43 4.43-1.662 4.956-3.663.146-.556.146-1.608-.002-2.172-.435-1.67-1.522-2.764-3.284-3.306-1.072-.33-1.71-.394-3.87-.391a70.8 70.8 0 0 0-2.988.058l-.95.055v9.52l1.122.025c2.048.047 4.261-.01 5.015-.126zm15.353 11.712v-1.243h4.008v-19.902h-4.008v-2.487h10.504v2.487h-4.008v19.902h4.008v2.488h-10.504z" style="opacity:1;fill:#f9f9f9;fill-opacity:1;stroke:#f9f9f9;stroke-width:.0552827;stroke-miterlimit:4;stroke-dasharray:none;stroke-opacity:1;paint-order:stroke fill markers"/></svg>