<svg width="32" height="32" viewBox="0 0 32 32" fill="none" xmlns="http://www.w3.org/2000/svg">
<g id="fluent:people-32-regular">
<path id="Vector" d="M11.3837 9.71427C11.3837 8.58911 11.83 7.51004 12.6242 6.71443C13.4185 5.91882 14.4958 5.47185 15.619 5.47185C16.7423 5.47185 17.8196 5.91882 18.6138 6.71443C19.4081 7.51004 19.8543 8.58911 19.8543 9.71427C19.8543 10.8394 19.4081 11.9185 18.6138 12.7141C17.8196 13.5097 16.7423 13.9567 15.619 13.9567C14.4958 13.9567 13.4185 13.5097 12.6242 12.7141C11.83 11.9185 11.3837 10.8394 11.3837 9.71427ZM15.619 3.04761C13.8539 3.04761 12.161 3.74999 10.9129 5.00023C9.66476 6.25047 8.96356 7.94616 8.96356 9.71427C8.96356 11.4824 9.66476 13.1781 10.9129 14.4283C12.161 15.6786 13.8539 16.3809 15.619 16.3809C17.3842 16.3809 19.077 15.6786 20.3251 14.4283C21.5733 13.1781 22.2745 11.4824 22.2745 9.71427C22.2745 7.94616 21.5733 6.25047 20.3251 5.00023C19.077 3.74999 17.3842 3.04761 15.619 3.04761ZM5.33331 22.4415C5.33331 21.4771 5.71578 20.5522 6.39659 19.8702C7.07739 19.1883 8.00076 18.8052 8.96356 18.8052H22.2745C23.2373 18.8052 24.1607 19.1883 24.8415 19.8702C25.5223 20.5522 25.9047 21.4771 25.9047 22.4415V22.7155C25.9024 22.8286 25.8943 22.9414 25.8805 23.0537C25.8563 23.2634 25.8116 23.5482 25.7232 23.8852C25.4908 24.7741 25.0794 25.6061 24.5144 26.33C23.0986 28.1506 20.4352 29.7143 15.619 29.7143C10.8029 29.7143 8.14071 28.1506 6.7237 26.33C6.15824 25.6062 5.74645 24.7742 5.51362 23.8852C5.42119 23.5286 5.36204 23.1642 5.33694 22.7967C5.33577 22.7696 5.33497 22.7426 5.33452 22.7155V22.6876L5.33331 22.6779V22.4415ZM7.75348 22.6573V22.6719C7.77025 22.8757 7.80467 23.0776 7.85634 23.2755C7.96525 23.6973 8.18669 24.267 8.632 24.8403C9.48511 25.9361 11.3595 27.29 15.619 27.29C19.8785 27.29 21.7542 25.9361 22.6061 24.8415C22.9678 24.3777 23.2314 23.8448 23.3805 23.2755C23.4326 23.0777 23.4674 22.8757 23.4846 22.6719L23.4858 22.6573V22.4415C23.4858 22.1201 23.3583 21.8118 23.1314 21.5844C22.9044 21.3571 22.5966 21.2294 22.2757 21.2294H8.96356C8.64263 21.2294 8.33484 21.3571 8.10791 21.5844C7.88097 21.8118 7.75348 22.1201 7.75348 22.4415V22.6573Z" fill="#FF9F0E"/>
</g>
</svg>
