<svg width="32" height="32" viewBox="0 0 32 32" fill="none" xmlns="http://www.w3.org/2000/svg">
<path d="M27.8334 29.3334C24.3667 29.3334 21.1058 28.6778 18.0507 27.3667C14.9947 26.0556 12.328 24.2614 10.0507 21.984C7.77247 19.7058 5.97247 17.0391 4.65069 13.984C3.32802 10.928 2.66669 7.65558 2.66669 4.16669C2.64447 3.76669 2.7778 3.41646 3.06669 3.11602C3.35558 2.81646 3.71113 2.66669 4.13335 2.66669H9.33335C9.73335 2.66669 10.0778 2.81646 10.3667 3.11602C10.6556 3.41646 10.8 3.7778 10.8 4.20002C10.8 5.1778 10.8667 6.10002 11 6.96669C11.1334 7.83335 11.3445 8.65558 11.6334 9.43335C11.7445 9.6778 11.7667 9.92758 11.7 10.1827C11.6334 10.4387 11.5 10.6778 11.3 10.9L7.96669 14.2334C8.92224 16.1889 10.2778 18.0445 12.0334 19.8C13.7889 21.5556 15.6778 22.9556 17.7 24L21.0334 20.6667C21.2334 20.4667 21.4667 20.3334 21.7334 20.2667C22 20.2 22.2667 20.2222 22.5334 20.3334C23.3556 20.6 24.2054 20.8054 25.0827 20.9494C25.9609 21.0942 26.8667 21.1667 27.8 21.1667C28.2222 21.1667 28.5836 21.3222 28.884 21.6334C29.1836 21.9445 29.3334 22.3222 29.3334 22.7667V27.8667C29.3334 28.2667 29.1889 28.6111 28.9 28.9C28.6111 29.1889 28.2556 29.3334 27.8334 29.3334ZM20.1667 25.3334C21.1667 25.7111 22.2111 26.0111 23.3 26.2334C24.3889 26.4556 25.5111 26.6 26.6667 26.6667V23.8C25.9778 23.7556 25.2725 23.6778 24.5507 23.5667C23.828 23.4556 23.1111 23.2889 22.4 23.0667L20.1667 25.3334ZM26.6667 16C26.6667 13.0222 25.6334 10.5 23.5667 8.43335C21.5 6.36669 18.9778 5.33335 16 5.33335V2.66669C17.8445 2.66669 19.5778 3.01646 21.2 3.71602C22.8222 4.41646 24.2334 5.36669 25.4334 6.56669C26.6334 7.76669 27.5831 9.1778 28.2827 10.8C28.9831 12.4222 29.3334 14.1556 29.3334 16H26.6667ZM21.3334 16C21.3334 14.5334 20.8111 13.2778 19.7667 12.2334C18.7222 11.1889 17.4667 10.6667 16 10.6667V8.00002C18.2222 8.00002 20.1111 8.7778 21.6667 10.3334C23.2222 11.8889 24 13.7778 24 16H21.3334ZM6.66669 11.7667L8.86669 9.53335C8.68891 8.88891 8.53869 8.21113 8.41602 7.50002C8.29424 6.78891 8.21113 6.06669 8.16669 5.33335H5.36669C5.41113 6.40002 5.54447 7.46669 5.76669 8.53335C5.98891 9.60002 6.28891 10.6778 6.66669 11.7667Z" fill="#FF9F0E"/>
</svg>
