<svg xmlns="http://www.w3.org/2000/svg" width="800" height="262" viewBox="0 -189.93 539.856 176.803"><path d="M541.762-37.203c0 13.178-10.682 23.866-23.859 23.866H25.77c-13.177.001-23.864-10.687-23.864-23.866v-128.863c0-13.177 10.687-23.864 23.864-23.864h492.132c13.177 0 23.86 10.687 23.86 23.864v128.863z" style="stroke-width:.0879565"/><text xml:space="preserve" x="164.677" y="-124.626" style="font-size:43.1885px;line-height:1.25;font-family:&quot;Arial Rounded MT Bold&quot;;-inkscape-font-specification:&quot;Arial Rounded MT Bold, &quot;;letter-spacing:0;fill:#fff;fill-opacity:1;stroke-width:.67482"><tspan x="164.677" y="-124.626" style="font-style:normal;font-variant:normal;font-weight:400;font-stretch:normal;font-size:43.1885px;font-family:&quot;Lucida Sans Unicode&quot;;-inkscape-font-specification:&quot;Lucida Sans Unicode&quot;;fill:#fff;fill-opacity:1;stroke-width:.67482">Play now in your</tspan></text><text xml:space="preserve" x="160.649" y="-54.759" style="font-size:86.377px;line-height:1.25;font-family:&quot;Arial Rounded MT Bold&quot;;-inkscape-font-specification:&quot;Arial Rounded MT Bold, &quot;;letter-spacing:0;fill:#fff;fill-opacity:1;stroke-width:.67482"><tspan x="160.649" y="-54.759" style="font-style:normal;font-variant:normal;font-weight:400;font-stretch:normal;font-size:86.377px;font-family:&quot;Lucida Sans Unicode&quot;;-inkscape-font-specification:&quot;Lucida Sans Unicode&quot;;fill:#fff;fill-opacity:1;stroke-width:.67482">Browser</tspan></text><g style="clip-rule:evenodd;fill-rule:evenodd;stroke:none;stroke-linejoin:round;stroke-miterlimit:2;stroke-opacity:1"><g style="stroke:none;stroke-opacity:1"><path d="M0 0h64v64H0z" style="fill:none;stroke:none;stroke-opacity:1" transform="matrix(1.98228 0 0 1.98228 22.824 -167.53)"/><path d="M335 80.75c-16.144 0-29.25 13.106-29.25 29.25s13.106 29.25 29.25 29.25 29.25-13.106 29.25-29.25S351.144 80.75 335 80.75zm0 2.5c14.764 0 26.75 11.986 26.75 26.75s-11.986 26.75-26.75 26.75-26.75-11.986-26.75-26.75S320.236 83.25 335 83.25z" style="fill:#fff;fill-opacity:1;stroke:none;stroke-opacity:1" transform="matrix(1.98228 0 0 1.98228 -577.808 -322.15)"/><path d="M335 80.75c-6.91 0-13.417 2.153-18.597 5.951C309.232 91.959 304.5 100.435 304.5 110s4.732 18.041 11.903 23.299c5.18 3.798 11.687 5.951 18.597 5.951 6.91 0 13.417-2.153 18.597-5.951 7.171-5.258 11.903-13.734 11.903-23.299s-4.732-18.041-11.903-23.299c-5.18-3.798-11.687-5.951-18.597-5.951Zm0 2.5c5.454 0 10.378 1.862 14.466 4.86 6.732 4.936 11.034 12.911 11.034 21.89 0 8.979-4.302 16.954-11.034 21.89-4.088 2.998-9.012 4.86-14.466 4.86-5.454 0-10.378-1.862-14.466-4.86-6.732-4.936-11.034-12.911-11.034-21.89 0-8.979 4.302-16.954 11.034-21.89 4.088-2.998 9.012-4.86 14.466-4.86z" style="fill:#fff;fill-opacity:1;stroke:none;stroke-opacity:1" transform="matrix(.99114 0 0 1.98228 -245.775 -322.15)"/><path d="M312.077 93.64a1.25 1.25 0 0 1-.109-1.664C317.324 85.143 325.653 80.75 335 80.75s17.676 4.393 23.032 11.226a1.25 1.25 0 0 1-.109 1.664c-5.333 5.225-13.616 8.61-22.923 8.61-9.307 0-17.59-3.385-22.923-8.61zm2.584-1.008c4.931 4.372 12.222 7.118 20.339 7.118 8.117 0 15.408-2.746 20.339-7.118-4.908-5.74-12.202-9.382-20.339-9.382-8.137 0-15.431 3.642-20.339 9.382z" style="fill:#fff;fill-opacity:1;stroke:none;stroke-opacity:1" transform="matrix(1.98228 0 0 -1.98228 -577.808 113.953)"/><path d="M311.968 91.976a1.25 1.25 0 0 0 .109 1.664c5.333 5.225 13.616 8.61 22.923 8.61 9.307 0 17.59-3.385 22.923-8.61a1.25 1.25 0 0 0 .109-1.664C352.676 85.143 344.347 80.75 335 80.75s-17.676 4.393-23.032 11.226zm2.693.656c4.908-5.74 12.202-9.382 20.339-9.382 8.137 0 15.431 3.642 20.339 9.382-4.931 4.372-12.222 7.118-20.339 7.118-8.117 0-15.408-2.746-20.339-7.118z" style="fill:#fff;fill-opacity:1;stroke:none;stroke-opacity:1" transform="matrix(1.98228 0 0 1.98228 -577.808 -322.15)"/><g style="stroke:none;stroke-opacity:1"><path d="M307 111.25h56a1.25 1.25 0 0 0 0-2.5h-56a1.25 1.25 0 0 0 0 2.5z" style="fill:#fff;fill-opacity:1;stroke:none;stroke-opacity:1" transform="matrix(1.98228 0 0 1.98228 -577.808 -322.15)"/></g><path d="M307 111.25h56a1.25 1.25 0 0 0 0-2.5h-56a1.25 1.25 0 0 0 0 2.5z" style="fill:#fff;fill-opacity:1;stroke:none;stroke-opacity:1" transform="matrix(0 -1.98228 1.98228 0 -131.794 559.967)"/></g></g><path d="M66.605-67.146v-29.577h79.807v59.155H66.605Z" style="fill:none;fill-opacity:1;stroke:none;stroke-width:.0491729;stroke-miterlimit:2;stroke-dasharray:none;stroke-opacity:1;paint-order:stroke fill markers" transform="translate(0 -189.93) scale(.67482)"/><path d="M66.605-67.146v-29.577h79.807v59.155H66.605Z" style="fill:none;fill-opacity:1;stroke:none;stroke-width:.0491729;stroke-miterlimit:2;stroke-dasharray:none;stroke-opacity:1;paint-order:stroke fill markers" transform="translate(0 -189.93) scale(.67482)"/></svg>