<?xml version="1.0" encoding="UTF-8" standalone="no"?>
<!-- Uploaded to: SVG Repo, www.svgrepo.com, Generator: SVG Repo Mixer Tools -->

<svg
   width="800"
   height="262"
   viewBox="0 -189.93 539.856 176.80284"
   version="1.1"
   id="svg35"
   sodipodi:docname="app-store.svg"
   inkscape:version="1.1.2 (b8e25be833, 2022-02-05)"
   xmlns:inkscape="http://www.inkscape.org/namespaces/inkscape"
   xmlns:sodipodi="http://sodipodi.sourceforge.net/DTD/sodipodi-0.dtd"
   xmlns="http://www.w3.org/2000/svg"
   xmlns:svg="http://www.w3.org/2000/svg">
  <defs
     id="defs39" />
  <sodipodi:namedview
     id="namedview37"
     pagecolor="#ffffff"
     bordercolor="#666666"
     borderopacity="1.0"
     inkscape:pageshadow="2"
     inkscape:pageopacity="0.0"
     inkscape:pagecheckerboard="0"
     showgrid="false"
     height="237.1px"
     inkscape:zoom="0.3177561"
     inkscape:cx="328.86859"
     inkscape:cy="549.16334"
     inkscape:window-width="1920"
     inkscape:window-height="1001"
     inkscape:window-x="-9"
     inkscape:window-y="-9"
     inkscape:window-maximized="1"
     inkscape:current-layer="layer2" />
  <path
     d="m 541.76218,-37.20335 c 0,13.1787 -10.68258,23.866474 -23.85917,23.866474 H 25.770485 C 12.592835,-13.335776 1.9061238,-24.023594 1.9061238,-37.20335 v -128.86229 c 0,-13.17765 10.6867112,-23.86436 23.8643612,-23.86436 H 517.90196 c 13.17658,0 23.85917,10.68671 23.85917,23.86436 v 128.86229 z"
     id="path2-6"
     style="stroke-width:0.0879565" />
  <g
     inkscape:groupmode="layer"
     id="layer1"
     inkscape:label="Layer 1">
    <text
       xml:space="preserve"
       style="font-size:43.1885px;line-height:1.25;font-family:'Arial Rounded MT Bold';-inkscape-font-specification:'Arial Rounded MT Bold, ';letter-spacing:0px;fill:#ffffff;fill-opacity:1;stroke-width:0.67482"
       x="164.67717"
       y="-124.62609"
       id="text3503"><tspan
         sodipodi:role="line"
         id="tspan3501"
         style="font-style:normal;font-variant:normal;font-weight:normal;font-stretch:normal;font-size:43.1885px;font-family:'Lucida Sans Unicode';-inkscape-font-specification:'Lucida Sans Unicode';fill:#ffffff;fill-opacity:1;stroke-width:0.67482"
         x="164.67717"
         y="-124.62609">Play now in your</tspan></text>
    <text
       xml:space="preserve"
       style="font-size:86.377px;line-height:1.25;font-family:'Arial Rounded MT Bold';-inkscape-font-specification:'Arial Rounded MT Bold, ';letter-spacing:0px;fill:#ffffff;fill-opacity:1;stroke-width:0.67482"
       x="160.64934"
       y="-54.758896"
       id="text3503-4"><tspan
         sodipodi:role="line"
         id="tspan3501-8"
         style="font-style:normal;font-variant:normal;font-weight:normal;font-stretch:normal;font-size:86.377px;font-family:'Lucida Sans Unicode';-inkscape-font-specification:'Lucida Sans Unicode';fill:#ffffff;fill-opacity:1;stroke-width:0.67482"
         x="160.64934"
         y="-54.758896">Browser</tspan></text>
  </g>
  <g
     inkscape:groupmode="layer"
     id="layer2"
     inkscape:label="icon">
    <g
       style="clip-rule:evenodd;fill-rule:evenodd;stroke:none;stroke-linejoin:round;stroke-miterlimit:2;stroke-opacity:1"
       id="g45406"
       transform="matrix(1.9822837,0,0,1.9822837,22.82428,-167.53095)">
      <g
         id="Artboard1"
         style="stroke:none;stroke-opacity:1">
        <rect
           height="64"
           style="fill:none;stroke:none;stroke-opacity:1"
           width="64"
           x="0"
           y="0"
           id="rect45343" />
        <g
           transform="translate(-303,-78)"
           id="g45347"
           style="fill:#ffffff;fill-opacity:1;stroke:none;stroke-opacity:1">
          <path
             d="m 335,80.75 c -16.144,0 -29.25,13.106 -29.25,29.25 0,16.144 13.106,29.25 29.25,29.25 16.144,0 29.25,-13.106 29.25,-29.25 0,-16.144 -13.106,-29.25 -29.25,-29.25 z m 0,2.5 c 14.764,0 26.75,11.986 26.75,26.75 0,14.764 -11.986,26.75 -26.75,26.75 -14.764,0 -26.75,-11.986 -26.75,-26.75 0,-14.764 11.986,-26.75 26.75,-26.75 z"
             id="path45345"
             style="fill:#ffffff;fill-opacity:1;stroke:none;stroke-opacity:1" />
        </g>
        <g
           transform="matrix(0.5,0,0,1,-135.5,-78)"
           id="g45351"
           style="fill:#ffffff;fill-opacity:1;stroke:none;stroke-opacity:1">
          <path
             d="m 335,80.75 c -6.91,0 -13.417,2.153 -18.597,5.951 -7.171,5.258 -11.903,13.734 -11.903,23.299 0,9.565 4.732,18.041 11.903,23.299 5.18,3.798 11.687,5.951 18.597,5.951 6.91,0 13.417,-2.153 18.597,-5.951 7.171,-5.258 11.903,-13.734 11.903,-23.299 0,-9.565 -4.732,-18.041 -11.903,-23.299 C 348.417,82.903 341.91,80.75 335,80.75 Z m 0,2.5 c 5.454,0 10.378,1.862 14.466,4.86 6.732,4.936 11.034,12.911 11.034,21.89 0,8.979 -4.302,16.954 -11.034,21.89 -4.088,2.998 -9.012,4.86 -14.466,4.86 -5.454,0 -10.378,-1.862 -14.466,-4.86 C 313.802,126.954 309.5,118.979 309.5,110 c 0,-8.979 4.302,-16.954 11.034,-21.89 4.088,-2.998 9.012,-4.86 14.466,-4.86 z"
             id="path45349"
             style="fill:#ffffff;fill-opacity:1;stroke:none;stroke-opacity:1" />
        </g>
        <g
           transform="matrix(1,0,0,-1,-303,142)"
           id="g45355"
           style="fill:#ffffff;fill-opacity:1;stroke:none;stroke-opacity:1">
          <path
             d="m 312.077,93.64 c -0.455,-0.445 -0.502,-1.162 -0.109,-1.664 5.356,-6.833 13.685,-11.226 23.032,-11.226 9.347,0 17.676,4.393 23.032,11.226 0.393,0.502 0.346,1.219 -0.109,1.664 -5.333,5.225 -13.616,8.61 -22.923,8.61 -9.307,0 -17.59,-3.385 -22.923,-8.61 z m 2.584,-1.008 c 4.931,4.372 12.222,7.118 20.339,7.118 8.117,0 15.408,-2.746 20.339,-7.118 -4.908,-5.74 -12.202,-9.382 -20.339,-9.382 -8.137,0 -15.431,3.642 -20.339,9.382 z"
             id="path45353"
             style="fill:#ffffff;fill-opacity:1;stroke:none;stroke-opacity:1" />
        </g>
        <g
           transform="translate(-303,-78)"
           id="g45359"
           style="fill:#ffffff;fill-opacity:1;stroke:none;stroke-opacity:1"
           inkscape:label="g45359">
          <path
             d="m 311.968,91.976 c -0.393,0.502 -0.346,1.219 0.109,1.664 5.333,5.225 13.616,8.61 22.923,8.61 9.307,0 17.59,-3.385 22.923,-8.61 0.455,-0.445 0.502,-1.162 0.109,-1.664 C 352.676,85.143 344.347,80.75 335,80.75 c -9.347,0 -17.676,4.393 -23.032,11.226 z m 2.693,0.656 c 4.908,-5.74 12.202,-9.382 20.339,-9.382 8.137,0 15.431,3.642 20.339,9.382 -4.931,4.372 -12.222,7.118 -20.339,7.118 -8.117,0 -15.408,-2.746 -20.339,-7.118 z"
             id="path45357"
             style="fill:#ffffff;fill-opacity:1;stroke:none;stroke-opacity:1" />
        </g>
        <g
           transform="translate(-303,-78)"
           id="g45363"
           style="stroke:none;stroke-opacity:1">
          <path
             d="m 307,111.25 h 56 c 0.69,0 1.25,-0.56 1.25,-1.25 0,-0.69 -0.56,-1.25 -1.25,-1.25 h -56 c -0.69,0 -1.25,0.56 -1.25,1.25 0,0.69 0.56,1.25 1.25,1.25 z"
             id="path45361"
             style="fill:#ffffff;fill-opacity:1;stroke:none;stroke-opacity:1"
             inkscape:label="path45361" />
        </g>
        <g
           transform="rotate(-90,144.5,222.5)"
           id="g45367"
           style="fill:#ffffff;fill-opacity:1;stroke:none;stroke-opacity:1">
          <path
             d="m 307,111.25 h 56 c 0.69,0 1.25,-0.56 1.25,-1.25 0,-0.69 -0.56,-1.25 -1.25,-1.25 h -56 c -0.69,0 -1.25,0.56 -1.25,1.25 0,0.69 0.56,1.25 1.25,1.25 z"
             id="path45365"
             style="fill:#ffffff;fill-opacity:1;stroke:none;stroke-opacity:1" />
        </g>
      </g>
    </g>
    <path
       style="fill:none;fill-opacity:1;stroke:none;stroke-width:0.0491729;stroke-miterlimit:2;stroke-dasharray:none;stroke-opacity:1;paint-order:stroke fill markers"
       d="m 66.60474,-67.145643 v -29.57752 h 39.90384 39.90383 v 29.57752 29.577521 H 106.50858 66.60474 Z"
       id="path55729"
       transform="matrix(0.67482,0,0,0.67482,0,-189.93)" />
    <path
       style="fill:none;fill-opacity:1;stroke:none;stroke-width:0.0491729;stroke-miterlimit:2;stroke-dasharray:none;stroke-opacity:1;paint-order:stroke fill markers"
       d="m 66.60474,-67.145643 v -29.57752 h 39.90384 39.90383 v 29.57752 29.577521 H 106.50858 66.60474 Z"
       id="path55768"
       transform="matrix(0.67482,0,0,0.67482,0,-189.93)" />
  </g>
</svg>
